<svg width="150" height="145" viewBox="0 0 150 145" fill="none" xmlns="http://www.w3.org/2000/svg">
<g clip-path="url(#clip0_2070_4353)">
<g filter="url(#filter0_d_2070_4353)">
<mask id="mask0_2070_4353" style="mask-type:luminance" maskUnits="userSpaceOnUse" x="8" y="32" width="129" height="97">
<path d="M9.0957 32.7256H136.064V127.857H9.0957V32.7256Z" fill="white" stroke="white" stroke-width="0.390625"/>
</mask>
<g mask="url(#mask0_2070_4353)">
<path d="M116.225 44.6278H96.386V32.7383H88.4515V98.3558C84.8013 100.477 82.1491 103.963 81.0791 108.043H56.1451C54.9825 103.478 51.8381 99.6714 47.5735 97.6625C43.3079 95.6545 38.3681 95.6545 34.1025 97.6625C29.8369 99.6715 26.6937 103.478 25.5299 108.043H17.0312V88.2252H9.0957V115.969L25.5299 115.97C26.6935 120.535 29.8369 124.341 34.1025 126.35C38.3681 128.358 43.3079 128.358 47.5735 126.35C51.8381 124.341 54.9823 120.534 56.1451 115.97H81.0791C82.3726 120.989 86.0445 125.057 90.9087 126.86C95.7739 128.663 101.214 127.971 105.471 125.009C109.729 122.047 112.264 117.19 112.257 112.006H136.064V64.4458C136.058 59.1918 133.966 54.1551 130.247 50.4399C126.528 46.7248 121.485 44.6346 116.225 44.6278ZM40.8374 119.932C38.7326 119.932 36.7147 119.097 35.226 117.61C33.7375 116.125 32.9017 114.108 32.9017 112.005C32.9017 109.903 33.7375 107.887 35.226 106.4C36.7145 104.914 38.7325 104.078 40.8374 104.078C42.9422 104.078 44.9601 104.914 46.4488 106.4C47.9363 107.887 48.773 109.903 48.773 112.005C48.773 114.108 47.9363 116.124 46.4488 117.61C44.9603 119.097 42.9422 119.932 40.8374 119.932ZM96.3843 52.5549H104.32V76.3352H96.3843V52.5549ZM96.3843 119.932C94.2805 119.932 92.2615 119.097 90.7739 117.61C89.2854 116.125 88.4496 114.108 88.4496 112.005C88.4496 109.903 89.2854 107.887 90.7739 106.4C92.2614 104.914 94.2804 104.078 96.3843 104.078C98.489 104.078 100.508 104.914 101.996 106.4C103.484 107.887 104.32 109.903 104.32 112.005C104.32 114.108 103.484 116.124 101.996 117.61C100.508 119.097 98.4891 119.932 96.3843 119.932ZM128.126 92.1883H120.19V100.115H128.126V104.078H110.049C107.236 99.1896 102.028 96.1698 96.3835 96.1511V84.2616H128.125L128.126 92.1883ZM128.126 76.3347H112.254V52.5544H116.223C119.38 52.5544 122.407 53.8072 124.64 56.0375C126.871 58.2667 128.125 61.2915 128.125 64.445L128.126 76.3347Z" fill="#E3E3E3" stroke="#E3E3E3" stroke-width="0.2"/>
</g>
<mask id="mask1_2070_4353" style="mask-type:luminance" maskUnits="userSpaceOnUse" x="8" y="0" width="73" height="81">
<path d="M9.0957 1.0293H80.6456V80.3035H9.0957V1.0293Z" fill="white" stroke="white" stroke-width="0.390625"/>
</mask>
<g mask="url(#mask1_2070_4353)">
<path d="M17.0326 80.2986H72.582V40.6652H80.5175V16.885H72.582V14.7924C72.583 10.6269 70.6958 6.68575 67.4492 4.07198C64.2025 1.4582 59.9459 0.454279 55.8721 1.34115C51.7975 2.22811 48.3451 4.91076 46.4815 8.63646L44.807 11.9818L43.1324 8.63646C41.2699 4.91051 37.8164 2.22801 33.7428 1.34115C29.6682 0.454178 25.4114 1.45816 22.1649 4.07198C18.9182 6.68575 17.0311 10.6269 17.0331 14.7924V16.885H9.09766V40.6652H17.0331L17.0326 80.2986ZM40.8393 72.3719H24.9681V40.6657H40.8393V72.3719ZM64.646 72.3719H48.7748V40.6657H64.646V72.3719ZM53.58 12.1843C54.3695 10.6041 55.8334 9.4663 57.5601 9.0897C59.2878 8.71308 61.0924 9.13887 62.4694 10.2471C63.8456 11.3543 64.646 13.026 64.646 14.7922V16.8848H51.2271L53.58 12.1843ZM24.9686 14.792C24.9676 13.026 25.768 11.3543 27.1452 10.2469C28.5214 9.13872 30.3269 8.71291 32.0537 9.08953C33.7814 9.46615 35.2453 10.6039 36.0348 12.1841L38.3876 16.8845H24.9688L24.9686 14.792ZM17.0331 24.8114H72.5825V32.738H17.0331V24.8114Z" fill="#E3E3E3" stroke="#E3E3E3" stroke-width="0.2"/>
</g>
</g>
</g>
<defs>
<filter id="filter0_d_2070_4353" x="1.99609" y="-2.07422" width="141.168" height="141.03" filterUnits="userSpaceOnUse" color-interpolation-filters="sRGB">
<feFlood flood-opacity="0" result="BackgroundImageFix"/>
<feColorMatrix in="SourceAlpha" type="matrix" values="0 0 0 0 0 0 0 0 0 0 0 0 0 0 0 0 0 0 127 0" result="hardAlpha"/>
<feOffset dy="4"/>
<feGaussianBlur stdDeviation="3.5"/>
<feComposite in2="hardAlpha" operator="out"/>
<feColorMatrix type="matrix" values="0 0 0 0 1 0 0 0 0 1 0 0 0 0 1 0 0 0 0.3 0"/>
<feBlend mode="normal" in2="BackgroundImageFix" result="effect1_dropShadow_2070_4353"/>
<feBlend mode="normal" in="SourceGraphic" in2="effect1_dropShadow_2070_4353" result="shape"/>
</filter>
<clipPath id="clip0_2070_4353">
<rect width="150" height="145" fill="white"/>
</clipPath>
</defs>
</svg>
