<svg width="113" height="41" viewBox="0 0 113 41" fill="none" xmlns="http://www.w3.org/2000/svg">
	<path fill-rule="evenodd" clip-rule="evenodd" d="M102.869 31.7096V29.7336H103.81V26.4804C103.81 25.8352 104.079 25.2303 104.523 24.7867C104.953 24.3565 105.544 24.0742 106.216 24.0742H111.446V29.7336H112.387V31.7096H102.869ZM105.907 26.1847C105.827 26.2519 105.786 26.3595 105.786 26.4804V29.7336H109.469V26.0503H106.216C106.095 26.0503 105.988 26.1041 105.907 26.1847Z" fill="#CC1100" />
	<path fill-rule="evenodd" clip-rule="evenodd" d="M98.474 24.7867C98.9041 25.2168 99.1864 25.8083 99.1999 26.467V26.4804V31.7096H97.2238V29.8277H93.5405V31.7096H91.5645V26.4804C91.5645 25.8352 91.8333 25.2303 92.2769 24.7867C92.7071 24.3565 93.312 24.0742 93.9707 24.0742H96.7936C97.4523 24.0742 98.0438 24.3431 98.474 24.7867ZM97.1028 26.1713C97.0222 26.1041 96.9146 26.0503 96.7936 26.0503H93.9707C93.8497 26.0503 93.7422 26.1041 93.6615 26.1847C93.5943 26.2519 93.5405 26.3595 93.5405 26.4804V27.8516H97.2238V26.4804C97.2238 26.3595 97.1835 26.2519 97.1028 26.1847V26.1713Z" fill="#CC1100" />
	<path d="M86.0538 24.0742H88.6348L84.817 27.8919L88.6348 31.7096H85.8521L83.0157 28.8867H82.2495V31.7096H80.2734V24.0742H82.2495V26.9106H83.0157L85.8521 24.0742H86.0538Z" fill="#CC1100" />
	<path d="M70.4326 31.7096H68.9404V24.0742H70.9568V28.4834L75.0165 24.0742H76.7372V31.7096H74.7208V27.2332L70.6745 31.7096H70.4326Z" fill="#CC1100" />
	<path d="M63.1877 25.2841V24.0742H65.1637V26.2654L62.986 27.9054L65.1637 29.5454V31.7096H63.1877V30.5267L61.346 29.1421L59.5044 30.5267V31.7096H57.5283V29.5454L59.7195 27.9054L57.5283 26.2654V24.0742H59.5044V25.2841L61.346 26.6686L63.1877 25.2841Z" fill="#CC1100" />
	<path fill-rule="evenodd" clip-rule="evenodd" d="M52.7962 24.7867C53.2129 25.2168 53.4952 25.8083 53.5087 26.467V26.4804V27.4214C53.5087 28.0667 53.2398 28.6716 52.7962 29.1152C52.3661 29.5454 51.7746 29.8277 51.1159 29.8277H47.8628V31.7096H45.8867V24.0742H51.1159C51.7611 24.0742 52.3526 24.3431 52.7828 24.7867H52.7962ZM51.4251 27.7172C51.5057 27.65 51.5461 27.5424 51.5461 27.4214V26.4804C51.5461 26.3595 51.5057 26.2519 51.4251 26.1847V26.1713C51.3444 26.1041 51.2369 26.0503 51.1293 26.0503H47.8628V27.8516H51.1293C51.2369 27.8516 51.3444 27.7978 51.4251 27.7306V27.7172Z" fill="#CC1100" />
	<path fill-rule="evenodd" clip-rule="evenodd" d="M41.1009 24.7867C41.5311 25.2168 41.7999 25.8083 41.8268 26.467V26.4804V31.7096H39.8508V29.8277H36.1675V31.7096H34.1914V26.4804C34.1914 25.8352 34.4603 25.2303 34.9039 24.7867C35.334 24.3565 35.9255 24.0742 36.5976 24.0742H39.4206C40.0658 24.0742 40.6573 24.3431 41.1009 24.7867ZM39.7163 26.1713C39.6491 26.1041 39.5416 26.0503 39.4206 26.0503H36.5842C36.4767 26.0503 36.3691 26.1041 36.2885 26.1847C36.2078 26.2519 36.1675 26.3595 36.1675 26.4804V27.8516H39.8508V26.4804C39.8508 26.3595 39.797 26.2519 39.7163 26.1847V26.1713Z" fill="#CC1100" />
	<path fill-rule="evenodd" clip-rule="evenodd" d="M29.2982 24.8004C29.7418 25.2305 30.0106 25.8354 30.0106 26.4807V29.3171C30.0106 29.9758 29.7418 30.5672 29.3116 31.0108C28.868 31.441 28.2765 31.7099 27.6179 31.7099H24.7815C24.1228 31.7099 23.5179 31.4544 23.0877 31.0108C22.6441 30.5807 22.3887 29.9758 22.3887 29.3171V26.4807C22.3887 25.822 22.6575 25.2305 23.0877 24.7869C23.5313 24.3567 24.1228 24.0879 24.7815 24.0879H27.6179C28.2631 24.0879 28.868 24.3567 29.2982 24.8004ZM27.9136 29.6128C27.9942 29.5322 28.0346 29.4246 28.0346 29.3171V26.4807C28.0346 26.3731 27.9942 26.2656 27.9136 26.1849C27.8329 26.1043 27.7254 26.064 27.6179 26.064H24.7815C24.6605 26.064 24.5664 26.1043 24.4857 26.1849C24.4051 26.2656 24.3513 26.3731 24.3513 26.4807V29.3171C24.3513 29.4246 24.4051 29.5322 24.4857 29.6128C24.5664 29.6935 24.6605 29.7472 24.7815 29.7472H27.6179C27.7254 29.7472 27.8329 29.6935 27.9136 29.6128Z" fill="#CC1100" />
	<path d="M17.9527 26.064H12.8042V26.9108H17.5226V28.8869H12.8042V29.7472H18.4635V31.7099H10.8281V24.0879H18.4635V26.064H17.9527Z" fill="#CC1100" />
	<path d="M6.94345 24.5985V26.0503H2.22509V31.7096H0.249023V24.0742H6.94345V24.5985Z" fill="#CC1100" />
	<path fill-rule="evenodd" clip-rule="evenodd" d="M51.3851 1.39723C52.8369 0.550341 54.5172 0.0664062 56.3186 0.0664062C58.1199 0.0664062 59.8002 0.550341 61.2386 1.39723C62.1258 1.90805 62.892 2.47264 62.892 3.60182C62.892 5.551 59.9481 7.12378 56.3186 7.12378C52.6891 7.12378 49.7451 5.551 49.7451 3.60182C49.7451 2.47264 50.5113 1.92149 51.3851 1.39723ZM60.19 2.23067C60.19 1.11493 58.4559 0.214275 56.3186 0.214275C54.1812 0.214275 52.4471 1.11493 52.4471 2.23067C52.4471 3.34641 54.1812 4.24706 56.3186 4.24706C58.4559 4.24706 60.19 3.34641 60.19 2.23067Z" fill="#0B2F38" />
	<path d="M56.3178 9.85249C51.9624 9.85249 48.4404 7.66135 48.4404 4.95938C48.4404 4.52921 48.5345 4.11249 48.6958 3.72266C47.8758 4.7443 47.2575 5.92725 46.8945 7.2043C46.8945 7.23118 46.8945 7.25359 46.8945 7.27151C47.3919 10.565 51.4247 13.119 56.3178 13.119C61.2109 13.119 65.2437 10.565 65.7411 7.27151C65.7411 7.25359 65.7411 7.23118 65.7411 7.2043C65.3781 5.92725 64.7598 4.7443 63.9398 3.72266C64.1011 4.11249 64.1952 4.52921 64.1952 4.95938C64.1952 7.66135 60.6732 9.85249 56.3178 9.85249Z" fill="#CC1100" />
	<path d="M56.3175 15.4849C51.7605 15.4849 47.9024 13.4147 46.7061 10.5918C47.9024 14.1541 51.7605 16.762 56.3175 16.762C60.8746 16.762 64.7326 14.1541 65.929 10.5918C64.7326 13.4147 60.8746 15.4849 56.3175 15.4849Z" fill="#CC1100" />
	<path d="M56.3178 18.2954C51.707 18.2954 47.8221 15.4053 46.666 11.4531C47.4457 16.0908 51.465 19.6262 56.3178 19.6262C61.1706 19.6262 65.1899 16.0908 65.9696 11.4531C64.8136 15.4053 60.9286 18.2954 56.3178 18.2954Z" fill="#0B2F38" />
	<path fill-rule="evenodd" clip-rule="evenodd" d="M103.555 38.6197H106.553V39.2111H103.555V40.4075H107.158V41.0125H102.95V36.8184H107.158V37.4098H103.555V38.6197ZM102.076 39.8295C102.076 40.4882 101.539 41.0259 100.88 41.0259H99.0787C98.42 41.0259 97.8823 40.4882 97.8823 39.8295V38.0282C97.8823 37.3695 98.42 36.8184 99.0787 36.8184H100.88C101.512 36.8184 102.076 37.3695 102.076 38.0282V39.8295ZM101.485 38.0282C101.485 37.6921 101.203 37.4233 100.88 37.4233H99.0787C98.7561 37.4233 98.4738 37.6921 98.4738 38.0282V39.8295C98.4738 40.1521 98.7561 40.421 99.0787 40.421H100.88C101.203 40.421 101.485 40.1521 101.485 39.8295V38.0282ZM93.406 38.6197H96.4037V36.8184H97.0086V41.0259H96.4037V39.2246H93.406V41.0259H92.801V36.8184H93.406V38.6197ZM88.2709 38.6197H91.2686V36.8318H91.8735V41.0259H91.2686V39.2246H88.2709V41.0259H87.6794V36.8318H88.2709V38.6197ZM86.7384 41.0125H86.1335V39.8161H83.1358V41.0125H82.5443V38.0148C82.5443 37.3829 83.0686 36.8184 83.7407 36.8184H85.542C86.1738 36.8184 86.725 37.3426 86.7384 38.0148V41.0125ZM83.7407 37.4098C83.4046 37.4098 83.1358 37.6787 83.1358 38.0148V39.2111H86.1335V38.0148C86.1335 37.6787 85.8646 37.4098 85.542 37.4098H83.7407ZM77.4092 37.8938V41.0125H76.8043V36.8184H77.4092L79.1971 39.4128L80.9984 36.8184H81.6033V41.0125H80.9984V37.8938L79.1971 40.4882L77.4092 37.8938ZM74.6804 40.421C75.003 40.421 75.2853 40.1387 75.2853 39.8161V39.2111H72.8791C72.2338 39.2111 71.6827 38.7003 71.6827 38.0148V36.8184H72.2742V38.0148C72.2742 38.3508 72.5564 38.6197 72.8791 38.6197H75.2853V36.8184H75.8768V39.8161C75.8768 40.4479 75.3525 41.0125 74.6804 41.0125H73C72.3414 41.0125 71.8171 40.4882 71.8037 39.8161H72.3951C72.3951 40.1387 72.664 40.421 73 40.421H74.6804ZM65.7141 40.421H66.3056V38.0148C66.3056 37.3829 66.8299 36.8184 67.502 36.8184H70.4997V40.421H71.1046V41.0125H65.7141V40.421ZM66.9105 40.421H69.9082V37.4233H67.502C67.1794 37.4233 66.9105 37.6921 66.9105 38.0282V40.421ZM65.0689 41.0125H64.4774V39.8161H61.4797V41.0125H60.8748V38.0148C60.8748 37.3829 61.3991 36.8184 62.0712 36.8184H63.8725C64.5178 36.8184 65.0555 37.3561 65.0689 38.0148V41.0125ZM62.0712 37.4233C61.7486 37.4233 61.4797 37.6921 61.4797 38.0148V39.2111H64.4774V38.0148C64.4774 37.6921 64.2086 37.4233 63.8725 37.4233H62.0712ZM57.5948 38.6197H58.7912C59.1273 38.6197 59.3961 38.3508 59.3961 38.0148C59.3961 37.6921 59.1273 37.4233 58.7912 37.4233H57.0033C56.6673 37.4233 56.3984 37.6921 56.3984 38.0148H55.7935C55.7935 37.3829 56.3312 36.8184 57.0033 36.8184H58.7912C59.423 36.8184 60.001 37.3561 60.001 38.0148C60.001 38.3732 59.8621 38.6734 59.5843 38.9154C59.8621 39.1574 60.001 39.4576 60.001 39.8161C60.001 40.4479 59.4633 41.0125 58.7912 41.0125H57.0033C56.3446 41.0125 55.8204 40.4882 55.7935 39.8161H56.3984C56.3984 40.1521 56.6673 40.421 57.0033 40.421H58.7912C59.1273 40.421 59.3961 40.1521 59.3961 39.8161C59.3961 39.4934 59.1273 39.2111 58.7912 39.2111H57.5948V38.6197ZM46.5584 37.8938V41.0259H45.9669V36.8318H46.5584L48.3597 39.4262L50.161 36.8318H50.766V41.0259H50.161V37.8938L48.3597 40.5016L46.5584 37.8938ZM41.5443 38.6197H44.542V39.2111H41.5443V40.4075H45.1469V41.0125H40.9528V36.8184H45.1469V37.4098H41.5443V38.6197ZM38.8155 40.421C39.1381 40.421 39.4069 40.1521 39.4069 39.8295V39.2246H37.0142C36.3689 39.2246 35.8178 38.7003 35.8178 38.0282V36.8318H36.4092V38.0282C36.4092 38.3508 36.6781 38.6197 37.0142 38.6197H39.4069V36.8318H40.0119V39.8295C40.0119 40.4613 39.4876 41.0259 38.8155 41.0259H37.1351C36.4764 41.0259 35.9522 40.5016 35.9387 39.8295H36.5302C36.5302 40.1521 36.7991 40.421 37.1351 40.421H38.8155ZM32.605 38.6197H33.8014C34.124 38.6197 34.3928 38.3508 34.3928 38.0282C34.3928 37.6921 34.124 37.4233 33.8014 37.4233H32.0001C31.664 37.4233 31.3951 37.6921 31.3951 38.0282H30.8037C30.8037 37.3829 31.3279 36.8318 32.0001 36.8318H33.8014C34.4332 36.8318 34.9978 37.3561 34.9978 38.0282C34.9978 38.3867 34.8633 38.6869 34.5945 38.9289C34.8633 39.1619 34.9978 39.4621 34.9978 39.8295C34.9978 40.4613 34.4735 41.0259 33.8014 41.0259H32.0001C31.3414 41.0259 30.8171 40.5016 30.8037 39.8295H31.3951C31.3951 40.1521 31.664 40.421 32.0001 40.421H33.8014C34.124 40.421 34.3928 40.1521 34.3928 39.8295C34.3928 39.4934 34.124 39.2246 33.8014 39.2246H32.605V38.6197ZM25.7896 36.8184H26.381V40.1521L29.3787 36.8184H29.9837V41.0125H29.3787V37.6249L26.381 41.0125H25.7896V36.8184ZM24.8486 36.8184V41.0259H24.2437V37.4233H21.8509C21.5148 37.4233 21.246 37.6921 21.246 38.0282V41.0259H20.6545V38.0282C20.6545 37.3829 21.1788 36.8452 21.8509 36.8184H24.8486ZM19.7135 41.0259H19.122V39.8295H16.1109V41.0259H15.5194V38.0282C15.5194 37.3829 16.0437 36.8184 16.7158 36.8184H18.5171C19.1624 36.8184 19.7001 37.3561 19.7135 38.0282V41.0259ZM16.7158 37.4233C16.3932 37.4233 16.1109 37.6921 16.1109 38.0282V39.2246H19.122V38.0282C19.122 37.6921 18.8397 37.4233 18.5171 37.4233H16.7158ZM11.0968 38.6197H14.0945V39.2246H11.0968V40.421H14.6994V41.0259H10.5053V36.8184H14.6994V37.4233H11.0968V38.6197ZM9.68531 38.6197C9.68531 39.2515 9.16105 39.8161 8.48892 39.8161H6.08269V41.0125H5.49121V36.8184H8.48892C9.13416 36.8184 9.67187 37.3561 9.68531 38.0148V38.6197ZM9.08039 38.0282C9.08039 37.6921 8.81154 37.4233 8.48892 37.4233H6.08269V39.2246H8.48892C8.81154 39.2246 9.08039 38.9557 9.08039 38.6197V38.0282Z" fill="#fff" />
</svg>
