<svg width="94" height="92" viewBox="0 0 94 92" fill="none" xmlns="http://www.w3.org/2000/svg">
<g filter="url(#filter0_d_2070_3101)">
<mask id="mask0_2070_3101" style="mask-type:luminance" maskUnits="userSpaceOnUse" x="6" y="20" width="81" height="61">
<path d="M6.4502 20.5898H86.2416V80.4401H6.4502V20.5898Z" fill="white" stroke="white" stroke-width="0.390625"/>
</mask>
<g mask="url(#mask0_2070_3101)">
<path d="M73.7744 28.0778H61.3065V20.5977H56.3202V61.8799C54.0263 63.2144 52.3596 65.4074 51.6871 67.9742H36.0177C35.2871 65.1024 33.3111 62.7076 30.631 61.4438C27.9504 60.1805 24.846 60.1805 22.1654 61.4438C19.4847 62.7077 17.5094 65.1026 16.778 67.9742H11.4371V55.5064H6.4502V72.961L16.778 72.9616C17.5093 75.8335 19.4847 78.2283 22.1654 79.4921C24.846 80.7554 27.9504 80.7554 30.631 79.4921C33.3111 78.2282 35.287 75.8333 36.0177 72.9616H51.6871C52.5 76.1193 54.8076 78.6787 57.8644 79.8127C60.9219 80.9473 64.3406 80.5118 67.0162 78.6483C69.6918 76.7849 71.2849 73.7289 71.2806 70.4679H86.2416V40.5459C86.2379 37.2405 84.9232 34.0717 82.586 31.7344C80.2486 29.3971 77.0798 28.082 73.7744 28.0778ZM26.3978 75.4543C25.0751 75.4543 23.8069 74.9291 22.8714 73.9937C21.936 73.0589 21.4108 71.79 21.4108 70.4673C21.4108 69.1446 21.936 67.8764 22.8714 66.9409C23.8068 66.0061 25.075 65.4802 26.3978 65.4802C27.7206 65.4802 28.9887 66.0061 29.9242 66.9409C30.859 67.8763 31.3849 69.1445 31.3849 70.4673C31.3849 71.79 30.859 73.0588 29.9242 73.9937C28.9888 74.9291 27.7206 75.4543 26.3978 75.4543ZM61.3055 33.065H66.2924V48.026H61.3055V33.065ZM61.3055 75.4543C59.9834 75.4543 58.7146 74.9291 57.7797 73.9937C56.8443 73.0589 56.319 71.79 56.319 70.4673C56.319 69.1446 56.8443 67.8764 57.7797 66.9409C58.7145 66.0061 59.9833 65.4802 61.3055 65.4802C62.6281 65.4802 63.897 66.0061 64.8318 66.9409C65.7672 67.8763 66.2925 69.1445 66.2925 70.4673C66.2925 71.79 65.7673 73.0588 64.8318 73.9937C63.8971 74.9291 62.6282 75.4543 61.3055 75.4543ZM81.2529 57.9997H76.266V62.9867H81.2529V65.4798H69.8926C68.1251 62.4045 64.8524 60.5046 61.305 60.4929V53.0128H81.2524L81.2529 57.9997ZM81.2529 48.0257H71.2789V33.0647H73.7727C75.7566 33.0647 77.659 33.8529 79.0621 35.256C80.4646 36.6585 81.2527 38.5615 81.2527 40.5454L81.2529 48.0257Z" fill="white" stroke="white" stroke-width="0.2"/>
</g>
<mask id="mask1_2070_3101" style="mask-type:luminance" maskUnits="userSpaceOnUse" x="6" y="0" width="46" height="51">
<path d="M6.4502 0.648438H51.4147V50.5226H6.4502V0.648438Z" fill="white" stroke="white" stroke-width="0.390625"/>
</mask>
<g mask="url(#mask1_2070_3101)">
<path d="M11.4378 50.52H46.347V25.5853H51.334V10.6243H46.347V9.3078C46.3476 6.68715 45.1617 4.20762 43.1214 2.5632C41.081 0.91878 38.4061 0.287178 35.8459 0.845137C33.2853 1.40316 31.1157 3.09091 29.9445 5.43487L28.8922 7.53953L27.8398 5.43487C26.6693 3.09075 24.4991 1.4031 21.9391 0.845137C19.3785 0.287115 16.7033 0.918755 14.6631 2.5632C12.6228 4.20762 11.4368 6.68715 11.4381 9.3078V10.6243H6.45117V25.5853H11.4381L11.4378 50.52ZM26.3988 45.5331H16.4247V25.5856H26.3988V45.5331ZM41.3598 45.5331H31.3857V25.5856H41.3598V45.5331ZM34.4055 7.66694C34.9016 6.67277 35.8216 5.95696 36.9067 5.72003C37.9925 5.48308 39.1265 5.75096 39.9919 6.44819C40.8567 7.14479 41.3597 8.1965 41.3597 9.30767V10.6242H32.9268L34.4055 7.66694ZM16.4251 9.30756C16.4244 8.19646 16.9274 7.14478 17.7929 6.44808C18.6578 5.75086 19.7924 5.48297 20.8776 5.71992C21.9633 5.95686 22.8833 6.67264 23.3795 7.66683L24.858 10.624H16.4252L16.4251 9.30756ZM11.4381 15.6111H46.3473V20.598H11.4381V15.6111Z" fill="white" stroke="white" stroke-width="0.2"/>
</g>
</g>
<defs>
<filter id="filter0_d_2070_3101" x="-0.649414" y="-2.45312" width="93.9912" height="93.9922" filterUnits="userSpaceOnUse" color-interpolation-filters="sRGB">
<feFlood flood-opacity="0" result="BackgroundImageFix"/>
<feColorMatrix in="SourceAlpha" type="matrix" values="0 0 0 0 0 0 0 0 0 0 0 0 0 0 0 0 0 0 127 0" result="hardAlpha"/>
<feOffset dy="4"/>
<feGaussianBlur stdDeviation="3.5"/>
<feComposite in2="hardAlpha" operator="out"/>
<feColorMatrix type="matrix" values="0 0 0 0 0.770833 0 0 0 0 0.636366 0 0 0 0 0.26658 0 0 0 0.5 0"/>
<feBlend mode="normal" in2="BackgroundImageFix" result="effect1_dropShadow_2070_3101"/>
<feBlend mode="normal" in="SourceGraphic" in2="effect1_dropShadow_2070_3101" result="shape"/>
</filter>
</defs>
</svg>
