<svg width="106" height="81" viewBox="0 0 106 81" fill="none" xmlns="http://www.w3.org/2000/svg">
	<g filter="url(#filter0_d_2070_3091)">
		<g filter="url(#filter1_d_2070_3091)">
			<path d="M54.2056 39.3136C60.0837 39.3136 64.866 34.9361 64.866 29.5572C64.866 24.1783 60.0844 19.8008 54.2056 19.8008C48.3274 19.8008 43.5439 24.1783 43.5439 29.5572C43.5439 34.9361 48.3276 39.3136 54.2056 39.3136ZM54.2056 22.9277C58.1995 22.9277 61.4477 25.9012 61.4477 29.5561C61.4477 33.2109 58.1995 36.1845 54.2056 36.1845C50.2116 36.1845 46.9621 33.2109 46.9621 29.5561C46.9621 25.9012 50.2116 22.9277 54.2056 22.9277Z" fill="white" stroke="white" stroke-width="0.390625" />
			<path d="M28.2253 39.2366C32.5733 39.2366 36.1097 35.9999 36.1097 32.0216C36.1097 28.0427 32.5727 24.8066 28.2253 24.8066C23.8772 24.8066 20.3408 28.0434 20.3408 32.0216C20.3402 36.0005 23.8772 39.2366 28.2253 39.2366ZM28.2253 27.9341C30.6885 27.9341 32.6913 29.767 32.6913 32.021C32.6913 34.2751 30.6885 36.1079 28.2253 36.1079C25.762 36.1079 23.7592 34.2751 23.7592 32.021C23.7585 29.767 25.7615 27.9341 28.2253 27.9341Z" fill="white" stroke="white" stroke-width="0.390625" />
			<path d="M78.8756 37.5296C83.2237 37.5296 86.7601 34.2929 86.7601 30.3146C86.7601 26.3357 83.223 23.0996 78.8756 23.0996C74.5276 23.0996 70.9912 26.3363 70.9912 30.3146C70.9905 34.2935 74.5276 37.5296 78.8756 37.5296ZM78.8756 26.2271C81.3395 26.2271 83.3417 28.0599 83.3417 30.314C83.3417 32.568 81.3389 34.4009 78.8756 34.4009C76.4124 34.4009 74.4096 32.568 74.4096 30.314C74.4089 28.0599 76.4119 26.2271 78.8756 26.2271Z" fill="white" stroke="white" stroke-width="0.390625" />
			<path d="M84.86 38.2784C84.0823 37.9592 83.1491 38.2277 82.705 38.9046C81.1029 41.3454 76.6382 41.3466 75.0388 38.9064C74.5966 38.2283 73.6735 37.9628 72.8838 38.2784C70.1098 39.3972 67.7935 41.3301 66.2281 43.6837C65.0935 42.9409 63.9003 42.2604 62.593 41.7306C61.7986 41.4101 60.8902 41.6799 60.45 42.3336C60.4433 42.3428 60.4366 42.3531 60.43 42.3629C59.108 44.3899 56.7816 45.5996 54.2057 45.5996C51.6284 45.5996 49.3001 44.3899 47.978 42.3629C47.5358 41.6848 46.6094 41.4114 45.8196 41.7336C43.8594 42.5259 42.0932 43.5879 40.5345 44.841C38.9651 42.7157 36.7907 41.0141 34.2042 39.9752C33.4178 39.6621 32.4933 39.9276 32.0524 40.6045C30.4303 43.0788 26.0122 43.077 24.3862 40.6026C23.9453 39.9258 23.0156 39.6603 22.2312 39.9764C16.8653 42.1438 13.3984 47.0174 13.3984 52.3922C13.3984 53.2565 14.1628 53.956 15.1073 53.956H34.2651C33.7589 55.6027 33.4694 57.3214 33.4694 59.0847C33.4694 59.949 34.2338 60.6485 35.1783 60.6485H73.2276C74.1721 60.6485 74.9365 59.949 74.9365 59.0847C74.9365 56.6994 74.3989 54.4039 73.4898 52.2574H91.9817C92.9262 52.2574 93.6906 51.5579 93.6906 50.6936C93.6946 45.3194 90.2276 40.4458 84.8617 38.2785L84.86 38.2784ZM16.9487 50.8284C17.4596 47.7296 19.4725 44.991 22.4279 43.3962C25.394 46.3381 31.0567 46.3381 34.0195 43.3932C35.7196 44.305 37.1108 45.6222 38.1101 47.1896C37.1183 48.3144 36.2525 49.5266 35.5635 50.8285L16.9487 50.8284ZM36.9756 57.5215C37.5399 52.3012 40.9081 47.6551 45.9585 45.1534C47.9682 47.3861 51.0042 48.7276 54.2071 48.7276C57.41 48.7276 60.446 47.3848 62.4557 45.1503C67.5061 47.657 70.8731 52.3029 71.4374 57.5221L36.9756 57.5215ZM71.82 49.1304C70.9876 47.8975 69.9884 46.7707 68.868 45.7375C69.8498 44.0809 71.3005 42.6607 73.0814 41.697C76.0355 44.6053 81.7121 44.6053 84.6662 41.697C87.6236 43.2918 89.6365 46.0298 90.1476 49.1304H71.82Z" fill="white" stroke="white" stroke-width="0.390625" />
		</g>
	</g>
	<defs>
		<filter id="filter0_d_2070_3091" x="9.20312" y="18.6055" width="88.6826" height="49.2383" filterUnits="userSpaceOnUse" color-interpolation-filters="sRGB">
			<feFlood flood-opacity="0" result="BackgroundImageFix" />
			<feColorMatrix in="SourceAlpha" type="matrix" values="0 0 0 0 0 0 0 0 0 0 0 0 0 0 0 0 0 0 127 0" result="hardAlpha" />
			<feOffset dy="3" />
			<feGaussianBlur stdDeviation="2" />
			<feComposite in2="hardAlpha" operator="out" />
			<feColorMatrix type="matrix" values="0 0 0 0 0.811765 0 0 0 0 0.486275 0 0 0 0 0.184314 0 0 0 0.4 0" />
			<feBlend mode="normal" in2="BackgroundImageFix" result="effect1_dropShadow_2070_3091" />
			<feBlend mode="normal" in="SourceGraphic" in2="effect1_dropShadow_2070_3091" result="shape" />
		</filter>
	</defs>
</svg>
