<svg width="90" height="95" viewBox="0 0 90 95" fill="none" xmlns="http://www.w3.org/2000/svg">
<g clip-path="url(#clip0_2070_3086)">
<g filter="url(#filter0_d_2070_3086)">
<path d="M80.741 74.1323L61.4413 28.7766C61.1072 28.0212 60.5572 27.3815 59.8606 26.938C59.164 26.4944 58.3523 26.2667 57.5265 26.2828C56.7012 26.2667 55.8889 26.4944 55.1923 26.938C54.4958 27.3816 53.9457 28.0212 53.6117 28.7766L50.7443 35.5342L47.8769 28.8019C47.416 27.6067 46.4329 26.6873 45.2092 26.3081V16.5835H65.9802L65.9796 2.96875H42.7411V26.3577C41.5174 26.7376 40.5343 27.6557 40.0734 28.8515L37.206 35.5837L34.3386 28.8515C34.0045 28.0961 33.4545 27.4564 32.7579 27.0129C32.0613 26.5693 31.249 26.3417 30.4238 26.3578C29.5979 26.3417 28.7862 26.5693 28.0896 27.0129C27.393 27.4565 26.843 28.0962 26.509 28.8515L7.23461 74.1328C6.68523 75.4462 6.82753 76.9471 7.61384 78.1337C8.39953 79.3202 9.72594 80.0361 11.1494 80.0423H76.8279C78.2564 80.0491 79.5921 79.3358 80.3809 78.1449C81.1698 76.9541 81.3058 75.4457 80.7429 74.1329L80.741 74.1323ZM45.2331 5.46205H63.5097V14.0893H45.2331V5.46205ZM42.3657 29.749C42.6101 29.1539 43.17 28.748 43.8115 28.7016H44.1357C44.7779 28.748 45.3377 29.1539 45.5821 29.749L64.8818 75.13C65.1398 75.6738 65.0996 76.3117 64.7748 76.819C64.4506 77.3257 63.8876 77.6294 63.2863 77.6232H24.6616C24.0602 77.6294 23.4972 77.3257 23.1731 76.819C22.8483 76.3117 22.8081 75.6732 23.066 75.1294L42.3657 29.749ZM9.67532 76.7756C9.34806 76.2881 9.29175 75.6676 9.52561 75.1293L28.8253 29.7482C29.108 29.1048 29.744 28.6903 30.4461 28.6903C31.1483 28.6903 31.7843 29.1054 32.0669 29.7488L35.8822 38.7002L20.9212 74.1574C20.4387 75.245 20.4387 76.486 20.9212 77.5736H11.1464C10.5513 77.5804 9.99456 77.2779 9.67532 76.7756ZM78.2965 76.7756C77.9772 77.2779 77.4204 77.5798 76.8253 77.573H67.1007C67.5832 76.4854 67.5832 75.2451 67.1007 74.1575L52.1397 38.7003L55.955 29.7489C56.2526 29.1234 56.8836 28.725 57.5758 28.725C58.2681 28.725 58.8985 29.1228 59.1966 29.7483L78.4963 75.1293C78.7159 75.6762 78.6404 76.2967 78.2965 76.7756Z" fill="white"/>
<path d="M80.741 74.1323L61.4413 28.7766C61.1072 28.0212 60.5572 27.3815 59.8606 26.938C59.164 26.4944 58.3523 26.2667 57.5265 26.2828C56.7012 26.2667 55.8889 26.4944 55.1923 26.938C54.4958 27.3816 53.9457 28.0212 53.6117 28.7766L50.7443 35.5342L47.8769 28.8019C47.416 27.6067 46.4329 26.6873 45.2092 26.3081V16.5835H65.9802L65.9796 2.96875H42.7411V26.3577C41.5174 26.7376 40.5343 27.6557 40.0734 28.8515L37.206 35.5837L34.3386 28.8515C34.0045 28.0961 33.4545 27.4564 32.7579 27.0129C32.0613 26.5693 31.249 26.3417 30.4238 26.3578C29.5979 26.3417 28.7862 26.5693 28.0896 27.0129C27.393 27.4565 26.843 28.0962 26.509 28.8515L7.23461 74.1328C6.68523 75.4462 6.82753 76.9471 7.61384 78.1337C8.39953 79.3202 9.72594 80.0361 11.1494 80.0423H76.8279C78.2564 80.0491 79.5921 79.3358 80.3809 78.1449C81.1698 76.9541 81.3058 75.4457 80.7429 74.1329L80.741 74.1323ZM45.2331 5.46205H63.5097V14.0893H45.2331V5.46205ZM42.3657 29.749C42.6101 29.1539 43.17 28.748 43.8115 28.7016H44.1357C44.7779 28.748 45.3377 29.1539 45.5821 29.749L64.8818 75.13C65.1398 75.6738 65.0996 76.3117 64.7748 76.819C64.4506 77.3257 63.8876 77.6294 63.2863 77.6232H24.6616C24.0602 77.6294 23.4972 77.3257 23.1731 76.819C22.8483 76.3117 22.8081 75.6732 23.066 75.1294L42.3657 29.749ZM9.67532 76.7756C9.34806 76.2881 9.29175 75.6676 9.52561 75.1293L28.8253 29.7482C29.108 29.1048 29.744 28.6903 30.4461 28.6903C31.1483 28.6903 31.7843 29.1054 32.0669 29.7488L35.8822 38.7002L20.9212 74.1574C20.4387 75.245 20.4387 76.486 20.9212 77.5736H11.1464C10.5513 77.5804 9.99456 77.2779 9.67532 76.7756ZM78.2965 76.7756C77.9772 77.2779 77.4204 77.5798 76.8253 77.573H67.1007C67.5832 76.4854 67.5832 75.2451 67.1007 74.1575L52.1397 38.7003L55.955 29.7489C56.2526 29.1234 56.8836 28.725 57.5758 28.725C58.2681 28.725 58.8985 29.1228 59.1966 29.7483L78.4963 75.1293C78.7159 75.6762 78.6404 76.2967 78.2965 76.7756Z" stroke="white" stroke-width="0.390625"/>
</g>
</g>
<defs>
<filter id="filter0_d_2070_3086" x="-0.291016" y="-0.226562" width="88.5723" height="91.4648" filterUnits="userSpaceOnUse" color-interpolation-filters="sRGB">
<feFlood flood-opacity="0" result="BackgroundImageFix"/>
<feColorMatrix in="SourceAlpha" type="matrix" values="0 0 0 0 0 0 0 0 0 0 0 0 0 0 0 0 0 0 127 0" result="hardAlpha"/>
<feOffset dy="4"/>
<feGaussianBlur stdDeviation="3.5"/>
<feComposite in2="hardAlpha" operator="out"/>
<feColorMatrix type="matrix" values="0 0 0 0 0.770833 0 0 0 0 0.636366 0 0 0 0 0.26658 0 0 0 0.5 0"/>
<feBlend mode="normal" in2="BackgroundImageFix" result="effect1_dropShadow_2070_3086"/>
<feBlend mode="normal" in="SourceGraphic" in2="effect1_dropShadow_2070_3086" result="shape"/>
</filter>
<clipPath id="clip0_2070_3086">
<rect width="89.1973" height="93.2518" fill="white" transform="translate(0.401367 0.972656)"/>
</clipPath>
</defs>
</svg>
