<svg width="93" height="92" viewBox="0 0 93 92" fill="none" xmlns="http://www.w3.org/2000/svg">
<g filter="url(#filter0_d_2070_4980)">
<mask id="mask0_2070_4980" style="mask-type:luminance" maskUnits="userSpaceOnUse" x="5" y="20" width="81" height="61">
<path d="M5.72656 20.5889H85.518V80.4391H5.72656V20.5889Z" fill="white" stroke="white" stroke-width="0.390625"/>
</mask>
<g mask="url(#mask0_2070_4980)">
<path d="M73.0508 28.0768H60.5829V20.5967H55.5966V61.879C53.3027 63.2134 51.6359 65.4065 50.9635 67.9733H35.2941C34.5634 65.1014 32.5874 62.7066 29.9074 61.4428C27.2267 60.1795 24.1224 60.1795 21.4417 61.4428C18.7611 62.7067 16.7858 65.1016 16.0544 67.9733H10.7135V55.5054H5.72656V72.96L16.0544 72.9607C16.7857 75.8325 18.7611 78.2273 21.4417 79.4911C24.1224 80.7544 27.2267 80.7544 29.9074 79.4911C32.5874 78.2272 34.5633 75.8323 35.2941 72.9607H50.9635C51.7764 76.1184 54.084 78.6777 57.1408 79.8117C60.1982 80.9463 63.6169 80.5108 66.2925 78.6474C68.9681 76.784 70.5612 73.7279 70.557 70.4669H85.518V40.545C85.5142 37.2395 84.1996 34.0707 81.8623 31.7334C79.525 29.3961 76.3562 28.0811 73.0508 28.0768ZM25.6742 75.4534C24.3515 75.4534 23.0833 74.9281 22.1478 73.9927C21.2124 73.0579 20.6871 71.7891 20.6871 70.4663C20.6871 69.1436 21.2124 67.8754 22.1478 66.9399C23.0832 66.0051 24.3514 65.4793 25.6742 65.4793C26.9969 65.4793 28.265 66.0051 29.2006 66.9399C30.1354 67.8753 30.6612 69.1435 30.6612 70.4663C30.6612 71.789 30.1354 73.0578 29.2006 73.9927C28.2652 74.9281 26.9969 75.4534 25.6742 75.4534ZM60.5818 33.064H65.5688V48.025H60.5818V33.064ZM60.5818 75.4534C59.2597 75.4534 57.9909 74.9281 57.056 73.9927C56.1206 73.0579 55.5954 71.7891 55.5954 70.4663C55.5954 69.1436 56.1206 67.8754 57.056 66.9399C57.9908 66.0051 59.2597 65.4793 60.5818 65.4793C61.9045 65.4793 63.1733 66.0051 64.1082 66.9399C65.0436 67.8753 65.5689 69.1435 65.5689 70.4663C65.5689 71.789 65.0436 73.0578 64.1082 73.9927C63.1734 74.9281 61.9046 75.4534 60.5818 75.4534ZM80.5293 57.9987H75.5423V62.9857H80.5293V65.4788H69.169C67.4015 62.4035 64.1288 60.5036 60.5813 60.4919V53.0118H80.5288L80.5293 57.9987ZM80.5293 48.0247H70.5552V33.0637H73.049C75.033 33.0637 76.9354 33.8519 78.3385 35.255C79.741 36.6575 80.5291 38.5605 80.5291 40.5445L80.5293 48.0247Z" fill="#CC1100" stroke="#CC1100" stroke-width="0.2"/>
</g>
<mask id="mask1_2070_4980" style="mask-type:luminance" maskUnits="userSpaceOnUse" x="5" y="0" width="46" height="51">
<path d="M5.72656 0.647461H50.6911V50.5216H5.72656V0.647461Z" fill="white" stroke="white" stroke-width="0.390625"/>
</mask>
<g mask="url(#mask1_2070_4980)">
<path d="M10.7142 50.518H45.6234V25.5833H50.6103V10.6223H45.6234V9.30584C45.624 6.6852 44.438 4.20566 42.3977 2.56124C40.3574 0.916827 37.6824 0.285225 35.1223 0.843184C32.5617 1.40121 30.3921 3.08895 29.2209 5.43292L28.1685 7.53758L27.1162 5.43292C25.9457 3.0888 23.7754 1.40114 21.2154 0.843184C18.6548 0.285162 15.9797 0.916802 13.9395 2.56124C11.8991 4.20566 10.7132 6.6852 10.7145 9.30584V10.6223H5.72754V25.5833H10.7145L10.7142 50.518ZM25.6751 45.5311H15.7011V25.5836H25.6751V45.5311ZM40.6361 45.5311H30.6621V25.5836H40.6361V45.5311ZM33.6818 7.66499C34.178 6.67081 35.0979 5.955 36.1831 5.71807C37.2688 5.48113 38.4029 5.749 39.2682 6.44624C40.1331 7.14284 40.6361 8.19455 40.6361 9.30572V10.6222H32.2032L33.6818 7.66499ZM15.7014 9.30561C15.7008 8.1945 16.2038 7.14282 17.0693 6.44613C17.9341 5.74891 19.0688 5.48102 20.154 5.71796C21.2397 5.95491 22.1596 6.67069 22.6558 7.66488L24.1344 10.6221H15.7015L15.7014 9.30561ZM10.7145 15.6091H45.6237V20.5961H10.7145V15.6091Z" fill="#CC1100" stroke="#CC1100" stroke-width="0.2"/>
</g>
</g>
<defs>
<filter id="filter0_d_2070_4980" x="-1.37305" y="-2.45544" width="93.9912" height="93.9941" filterUnits="userSpaceOnUse" color-interpolation-filters="sRGB">
<feFlood flood-opacity="0" result="BackgroundImageFix"/>
<feColorMatrix in="SourceAlpha" type="matrix" values="0 0 0 0 0 0 0 0 0 0 0 0 0 0 0 0 0 0 127 0" result="hardAlpha"/>
<feOffset dy="4"/>
<feGaussianBlur stdDeviation="3.5"/>
<feComposite in2="hardAlpha" operator="out"/>
<feColorMatrix type="matrix" values="0 0 0 0 0.770833 0 0 0 0 0.636366 0 0 0 0 0.26658 0 0 0 0.5 0"/>
<feBlend mode="normal" in2="BackgroundImageFix" result="effect1_dropShadow_2070_4980"/>
<feBlend mode="normal" in="SourceGraphic" in2="effect1_dropShadow_2070_4980" result="shape"/>
</filter>
</defs>
</svg>
