<svg width="82" height="88" viewBox="0 0 82 88" fill="none" xmlns="http://www.w3.org/2000/svg">
	<g filter="url(#filter0_d_2070_4957)">
		<g filter="url(#filter1_d_2070_4957)">
			<path d="M32.3002 32.0852L37.9653 38.0694C38.2845 38.3887 38.6038 38.5483 39.0028 38.5483C39.4018 38.5483 39.8009 38.3887 40.1201 38.0694L51.7695 25.2231C52.0089 24.9837 52.1685 24.5846 52.1685 24.1856C52.1685 23.7866 52.0089 23.4673 51.6896 23.1481C51.4502 22.9087 51.0512 22.7491 50.6522 22.7491H50.5723C50.1733 22.7491 49.8541 22.9087 49.5349 23.2279L39.0827 34.8779L34.5343 30.0902C34.2151 29.771 33.8958 29.6114 33.4968 29.6114C33.1776 29.6114 32.8583 29.6912 32.4593 30.0104C32.1401 30.3296 31.9805 30.6488 31.9805 31.0479C31.9817 31.3671 32.0615 31.6863 32.3003 32.0854L32.3002 32.0852Z" fill="#CC1100" stroke="#CC1100" stroke-width="0.390625" />
			<path d="M53.9246 39.5066C53.9246 40.3436 53.2459 41.0223 52.4083 41.0223C51.5712 41.0223 50.8926 40.3436 50.8926 39.5066C50.8926 38.6695 51.5712 37.9902 52.4083 37.9902C53.2459 37.9902 53.9246 38.6695 53.9246 39.5066Z" fill="#CC1100" stroke="#CC1100" stroke-width="0.390625" />
			<path d="M30.865 22.1127C31.7428 22.1127 32.3813 21.4743 32.3813 20.5964C32.3813 19.7185 31.7428 19.0801 30.865 19.0801C29.9871 19.0801 29.3486 19.7185 29.3486 20.5964C29.3486 21.4749 30.0669 22.1127 30.865 22.1127Z" fill="#CC1100" stroke="#CC1100" stroke-width="0.390625" />
			<path d="M50.0943 40.704C49.6952 40.5443 49.2962 40.6241 48.8972 40.8636C46.8228 42.2203 44.3488 42.938 41.8754 42.938C34.694 42.938 28.7896 37.1134 28.7896 29.8522C28.7896 27.8576 29.1886 26.1018 29.9867 24.5063C30.2261 24.1871 30.2261 23.7881 29.9867 23.389C29.8271 22.99 29.5877 22.8304 29.3482 22.6708C29.029 22.4314 28.63 22.4314 28.3108 22.6708C27.9117 22.7506 27.6723 23.0698 27.5127 23.389C26.555 25.6229 26.0762 27.7778 26.0762 29.9319C26.0762 38.6289 33.1777 45.7305 41.795 45.7305C44.8271 45.7305 47.7792 44.8526 50.3324 43.2571C50.6516 43.0975 50.8112 42.7783 50.891 42.3793C50.9708 42.06 50.891 41.661 50.7314 41.3418C50.5731 41.0226 50.4135 40.8636 50.0943 40.704Z" fill="#CC1100" stroke="#CC1100" stroke-width="0.390625" />
			<path d="M41.9552 14.1328C38.9231 14.1328 35.8912 15.0107 33.2582 16.7658C32.6197 17.1648 32.4601 17.9629 32.8592 18.6806C33.0188 18.9998 33.338 19.2392 33.737 19.319C34.0563 19.3988 34.4553 19.319 34.7745 19.0796C36.9288 17.6431 39.4027 16.9254 41.9559 16.9254C49.1373 16.9254 55.0417 22.75 55.0417 30.0112C55.0417 31.926 54.6427 33.7615 53.8446 35.357C53.6052 35.6762 53.6052 36.0753 53.8446 36.3945C53.9244 36.7935 54.2437 37.0329 54.5629 37.1926C54.8023 37.2724 54.9619 37.2724 55.1215 37.2724C55.6802 37.2724 56.159 36.9532 56.3984 36.4743C57.3561 34.3999 57.7552 32.2452 57.7552 29.9315C57.6747 21.2344 50.6529 14.1328 41.9552 14.1328Z" fill="#CC1100" stroke="#CC1100" stroke-width="0.390625" />
			<path d="M64.5361 30.4904C65.0947 29.6923 65.3342 28.8943 65.4938 28.0969C65.813 26.5007 65.2544 24.3465 63.4992 23.4686C63.1002 23.1494 62.7809 22.91 62.5415 22.7504C62.4617 22.6706 62.3819 22.6706 62.3819 22.5907C62.2223 22.5109 62.0627 22.3513 61.8232 22.1119C61.7434 22.0321 61.7434 22.0321 61.6636 21.7927V21.5533C61.5838 21.2341 61.7434 20.7552 61.8232 20.2764C61.8232 20.1966 61.9031 20.037 61.9031 19.9572C62.3021 18.7601 62.8607 16.8454 61.1848 15.3289C60.3867 14.5309 59.3498 14.2914 58.472 14.052C58.3922 14.052 58.2325 13.9722 58.1527 13.9722C57.8335 13.8924 57.5941 13.8126 57.3547 13.7328C56.5566 13.3338 55.8383 12.6953 55.4399 11.7382C54.8813 10.5411 53.7646 8.86575 52.1685 7.90805C50.8118 7.10998 49.0567 7.74844 47.8596 8.14747L47.6999 8.22727C47.5403 8.30708 47.4605 8.30708 47.3009 8.30708C46.7423 8.6263 46.5028 8.5465 46.423 8.5465C46.024 8.38689 45.625 7.90805 45.2259 7.50901L45.1461 7.4292C44.3481 6.55132 42.9122 5.11549 40.917 5.83309C39.8795 6.15231 39.0821 6.87058 38.5235 7.58821C38.2043 7.90743 37.9648 8.14685 37.7254 8.38628C37.0071 8.86512 36.6081 8.86512 35.1722 8.46609C35.0924 8.46609 34.9328 8.38628 34.853 8.38628C34.7732 8.38628 34.6136 8.30648 34.5338 8.30648C33.6559 8.06706 32.6988 8.06706 31.9806 8.22667C30.1463 8.62755 28.7901 10.223 28.6306 12.0579C28.6306 13.3348 27.7528 13.7332 25.9178 14.2122C25.5188 14.292 25.2794 14.3718 25.1198 14.4516C23.6832 14.9304 22.806 15.8881 22.008 17.1644C21.2897 18.2817 21.5291 19.7176 21.6888 20.9148C21.7686 21.3138 21.8484 21.7128 21.8484 21.8724C21.8484 22.3513 21.8484 22.6705 21.6888 22.8301C21.4493 23.1493 21.0503 23.3888 20.7311 23.6282L20.6513 23.708C19.3744 24.6657 17.5395 26.0217 18.1779 28.5749C18.4971 29.6922 19.1356 30.4897 19.774 31.1281C20.0134 31.3675 20.2529 31.6867 20.4923 31.9261C20.8913 32.6444 20.8115 33.1232 20.4125 34.4793L20.1731 35.1178C19.8538 35.9956 19.774 36.8729 19.9336 37.6709C20.1731 39.5857 21.6089 41.0222 23.2849 41.2616C24.2426 41.5809 25.04 42.6982 25.1198 43.5754C25.2794 44.8523 25.9179 46.767 27.1942 48.1238C27.9923 48.9218 29.1888 49.0814 30.1465 49.0814L24.0026 71.981C23.9228 72.38 24.0824 72.7791 24.4017 73.0983C24.8007 73.4175 25.1997 73.4175 25.5988 73.1781L32.3811 69.0288L36.3707 74.9333C36.6101 75.2525 36.9294 75.4919 37.2486 75.4919H37.3284H37.4082C37.8072 75.4121 38.2063 75.0929 38.2861 74.6938L42.1948 60.0923L46.025 73.8964C46.1846 74.2954 46.5038 74.6945 46.9028 74.6945H47.0625C47.4615 74.6945 47.7807 74.5349 47.9403 74.2156L51.8503 68.2314L58.7124 72.3009C59.1115 72.5403 59.5903 72.5403 59.9095 72.2211C60.3086 71.9816 60.4682 71.423 60.3086 71.1038L54.2445 48.8424C55.5214 48.7626 57.3563 48.204 58.6333 47.2463L58.7131 47.1665C59.8304 46.2088 59.9102 44.5335 59.99 43.0172V42.698V42.4586C59.99 42.0596 60.0698 41.7403 60.2294 41.5807C60.4688 41.2615 61.0275 41.0221 61.5861 40.7826C62.7832 40.3038 64.6182 39.5855 64.6979 37.2718C64.7777 36.1545 64.2988 35.1175 63.8998 34.3993L63.82 34.1599C63.6604 33.8407 63.5806 33.6012 63.5008 33.3618C63.2614 32.5637 64.2988 30.649 64.2988 30.5692C64.4566 30.6496 64.4563 30.5702 64.5361 30.4904ZM36.5289 71.9025L33.2575 67.0356C33.0181 66.7164 32.619 66.477 32.3796 66.477C32.1402 66.477 31.9806 66.5568 31.821 66.6366L26.4751 69.908L32.0604 49.0816C32.2998 49.0816 32.5393 49.1614 32.6989 49.2412C33.0181 49.4806 33.3373 49.9595 33.4969 50.5181L33.5767 50.5979C34.1354 51.7152 34.9335 53.4704 37.3271 53.4704C38.4444 53.4704 39.4015 52.9117 40.1197 52.5925C40.439 52.3531 40.838 52.1935 41.0774 52.0339C41.3168 51.9541 41.5562 51.8742 41.7957 51.954C41.8755 51.954 41.9553 51.9541 41.9553 52.0339L36.5289 71.9025ZM57.2745 69.0301L51.9287 65.7586C51.3701 65.4394 50.8114 65.599 50.4124 66.0779L47.141 70.8651L42.9917 55.7049L43.8696 52.7526C43.9494 52.7526 43.9494 52.8324 44.0292 52.8324C44.7475 53.2314 45.5455 53.5507 46.4227 53.6305H46.7419C48.8962 53.6305 50.7316 50.758 51.2903 49.8003C51.45 49.6407 51.6894 49.4013 51.9288 49.3215L57.2745 69.0301ZM62.7002 27.6179C62.6204 28.0968 62.4608 28.4958 62.0617 29.0544L61.7425 29.5333C60.9445 30.6506 59.9874 32.0865 60.6252 34.0817C60.7848 34.5605 61.4233 35.5182 61.4233 35.5182C61.7425 36.1566 61.9819 36.6355 61.9819 37.1935C61.9819 37.7521 61.6627 37.9916 60.4656 38.3906C59.6675 38.7098 58.6307 39.1089 58.0721 39.9867C57.4336 40.7848 57.274 41.662 57.274 42.3004V43.0187C57.274 43.9764 57.1942 45.0931 56.875 45.3324C56.0769 46.0507 54.5613 46.3699 53.7632 46.3699C52.1671 46.3699 50.5716 47.168 49.4543 48.2847C49.3745 48.3645 49.2947 48.4443 49.2149 48.5241C48.0976 50.4388 46.981 51.2369 46.9011 51.2369C46.2627 51.1571 45.8637 50.9177 45.3848 50.6783L44.8262 50.4388C43.9483 49.8802 42.9114 49.3215 41.6346 49.3215C41.076 49.3215 40.6769 49.4013 40.1183 49.6408C39.6394 49.8004 39.2404 50.0398 38.9212 50.2792L38.7616 50.359C38.1231 50.6782 37.6443 50.9975 37.0863 50.9975C36.5276 50.9975 36.368 50.758 35.8093 49.5609C35.4103 48.6831 34.9315 47.8058 34.0542 47.2472C33.2562 46.6886 32.2991 46.6088 31.7405 46.6088H31.1819L31.0235 46.6082H30.7841C30.0658 46.6082 28.9491 46.6082 28.6299 46.3687C27.9116 45.5707 27.4328 44.1349 27.3529 43.3366C27.1933 41.6613 25.8366 39.5065 23.6026 38.7882H23.3632C22.6449 38.7084 22.2459 38.07 22.0863 37.3517C22.0065 36.8729 22.0863 36.4738 22.2459 35.8354C22.3257 35.6758 22.4055 35.4364 22.4055 35.2768C22.8843 33.9999 23.3632 32.3245 22.2459 30.5687C21.9267 30.0899 21.5276 29.7706 21.2882 29.3716C20.8094 28.8928 20.4901 28.4937 20.4103 27.9351C20.2507 27.137 20.6497 26.738 21.9267 25.7012C22.4853 25.3022 22.9641 24.9031 23.3632 24.5041C24.1612 23.6262 24.1612 22.4297 24.1612 21.7115C24.1612 21.3922 24.0814 20.9932 24.0016 20.674C24.0016 20.5144 23.9218 20.4346 23.9218 20.2749C23.9218 20.1153 23.9218 20.0355 23.842 19.8759C23.7622 19.3173 23.6824 18.599 23.7622 18.3596C24.4805 17.4019 24.8795 16.9231 25.5173 16.6843C25.5971 16.6843 25.6769 16.6045 25.8366 16.6045L26.1558 16.5247C27.5923 16.2055 30.8638 15.4872 30.8638 11.9763C30.9436 11.258 31.5023 10.7792 32.2205 10.6196C32.6994 10.5398 33.0984 10.5398 33.7369 10.6994L34.3753 10.859C35.732 11.258 37.3276 11.6571 39.0035 10.3802C39.4824 10.0609 39.8016 9.66189 40.1208 9.34267C40.5996 8.78403 40.9987 8.46479 41.4775 8.30518C41.9564 8.14557 42.2756 8.30518 43.1528 9.34267C43.7913 10.0609 44.4297 10.7792 45.4665 11.0978C46.2646 11.417 47.2217 11.2574 47.8601 11.018C48.0995 10.9382 48.3389 10.8584 48.5783 10.7786H48.6581C49.2168 10.619 50.5729 10.1401 50.892 10.2997C51.7699 10.9382 52.727 12.1347 53.0463 12.8529C53.6847 14.3692 54.8014 15.5657 56.3177 16.2041C56.7965 16.4436 57.1956 16.5234 57.7542 16.683C58.3926 16.8426 58.9513 17.0022 59.3503 17.4012C59.7493 17.8003 59.7493 18.1195 59.3503 19.3958C59.1109 20.1939 58.7119 21.2308 58.9513 22.3481L59.0311 22.5077C59.1109 22.9866 59.2705 23.4654 59.8292 24.183C60.3878 24.6619 60.6272 24.9013 60.9465 24.9811C61.0263 25.0609 61.1061 25.0609 61.1061 25.1407C61.2657 25.2205 61.4253 25.3801 61.6647 25.6195C61.7445 25.6994 61.8243 25.7792 61.9839 25.859C61.9839 25.859 62.0637 25.859 62.0637 25.9388C62.6205 26.0217 62.78 26.9794 62.7002 27.6179Z" fill="#CC1100" stroke="#CC1100" stroke-width="0.390625" />
		</g>
	</g>
	<defs>
		<filter id="filter1_d_2070_4957" x="13.8516" y="4.44269" width="55.9219" height="78.2445" filterUnits="userSpaceOnUse" color-interpolation-filters="sRGB">
			<feFlood flood-opacity="0" result="BackgroundImageFix" />
			<feColorMatrix in="SourceAlpha" type="matrix" values="0 0 0 0 0 0 0 0 0 0 0 0 0 0 0 0 0 0 127 0" result="hardAlpha" />
			<feOffset dy="3" />
			<feGaussianBlur stdDeviation="2" />
			<feComposite in2="hardAlpha" operator="out" />
			<feColorMatrix type="matrix" values="0 0 0 0 0.811765 0 0 0 0 0.486275 0 0 0 0 0.184314 0 0 0 0.4 0" />
			<feBlend mode="normal" in2="BackgroundImageFix" result="effect1_dropShadow_2070_4957" />
			<feBlend mode="normal" in="SourceGraphic" in2="effect1_dropShadow_2070_4957" result="shape" />
		</filter>
	</defs>
</svg>
