<svg width="18" height="18" viewBox="0 0 18 18" fill="none" xmlns="http://www.w3.org/2000/svg">
	<path fill-rule="evenodd" clip-rule="evenodd" d="M10.6845 12.2203C9.73895 11.6294 6.37008 8.26057 5.77945 7.31526C6.01581 6.96064 6.54774 6.54698 6.7841 6.31061C7.25695 5.71963 7.07966 4.89217 6.84315 4.30119C6.54759 3.47385 5.6612 0.577914 4.361 1.22807C3.77003 1.58268 1.34694 3.41479 1.16964 4.06483C0.874075 5.30596 1.58331 6.54698 2.29253 7.55162C4.47925 10.684 7.31596 13.5208 10.4484 15.7075C11.453 16.4167 12.6942 17.1259 13.9352 16.8304C14.5852 16.6531 16.4173 14.23 16.7719 13.639C17.4812 12.3388 14.5262 11.4523 13.6988 11.1569C13.1078 10.9205 12.2804 10.7432 11.6894 11.2159C11.453 11.4523 11.0394 11.9842 10.6848 12.2206L10.6845 12.2203ZM10.7436 12.9296C11.0391 12.9296 12.0438 11.8067 12.162 11.6884C12.2803 11.5702 12.5757 11.3929 13.4622 11.7475C14.4078 12.1021 16.4172 12.8704 16.1807 13.284C15.9444 13.7569 14.1713 16.1208 13.8167 16.1799C13.4621 16.2981 12.6938 16.4754 10.8617 15.1752C7.72932 13.0477 4.9519 10.2701 2.82417 7.13771C1.52397 5.3056 1.70128 4.53732 1.81952 4.18271C1.87857 3.82809 4.24261 2.05517 4.71534 1.81864C5.12901 1.58228 5.89729 3.59157 6.2519 4.53716C6.60652 5.42368 6.42921 5.71911 6.31095 5.83735C6.1927 5.9556 5.06982 6.96025 5.06982 7.25579C5.06982 8.02407 9.9749 12.9292 10.7433 12.9292L10.7436 12.9296Z" fill="black" stroke="black" stroke-width="0.390625" />
</svg>
