<svg width="30" height="30" viewBox="0 0 30 30" fill="none" xmlns="http://www.w3.org/2000/svg">
<path d="M15.0002 1.19922C7.38577 1.19922 1.2002 7.3848 1.2002 14.9992C1.2002 22.6136 7.38577 28.7992 15.0002 28.7992C22.6146 28.7992 28.8002 22.6136 28.8002 14.9992C28.8002 7.3848 22.6146 1.19922 15.0002 1.19922ZM15.0002 2.39922C21.9661 2.39922 27.6002 8.03332 27.6002 14.9992C27.6002 21.9651 21.9661 27.5992 15.0002 27.5992C8.0343 27.5992 2.4002 21.9651 2.4002 14.9992C2.4002 8.03332 8.0343 2.39922 15.0002 2.39922ZM20.4529 8.42031C20.0425 8.42031 19.5814 8.51537 19.042 8.70977C18.2044 9.01157 8.35264 13.1945 7.23184 13.6703C6.59104 13.9427 5.39785 14.4494 5.39785 15.6578C5.39785 16.4588 5.86721 17.0317 6.79121 17.3617C7.28801 17.5387 8.46794 17.8964 9.15254 18.0848C9.44294 18.1646 9.75155 18.2055 10.0689 18.2055C10.6899 18.2055 11.3149 18.0507 11.8045 17.7777C11.8003 17.8785 11.803 17.9804 11.815 18.0824C11.8888 18.7124 12.2773 19.305 12.8533 19.668C13.2301 19.9056 16.3078 21.9677 16.7674 22.2953C17.413 22.7567 18.1267 23.0008 18.8299 23.0008C20.1739 23.0008 20.6248 21.6131 20.842 20.9465C21.157 19.9787 22.3365 12.1085 22.4697 10.7207C22.5603 9.7697 22.164 8.98659 21.4092 8.62539C21.1266 8.48919 20.8039 8.42031 20.4529 8.42031ZM20.4529 9.62031C20.6179 9.62031 20.7652 9.6476 20.89 9.7082C21.1738 9.8444 21.3182 10.148 21.2744 10.607C21.1292 12.1208 19.9526 19.8046 19.7018 20.575C19.487 21.2338 19.2607 21.8008 18.8299 21.8008C18.3991 21.8008 17.9284 21.6498 17.4646 21.318C17.0008 20.9868 13.921 18.9214 13.4932 18.652C13.1182 18.4156 12.7213 17.8263 13.2799 17.2563C13.7401 16.7871 17.2309 13.399 17.5291 13.1008C17.7511 12.8782 17.6473 12.6098 17.4295 12.6098C17.3545 12.6098 17.2647 12.6414 17.1717 12.7176C16.8069 13.0158 11.7211 16.419 11.2807 16.6926C10.9891 16.8738 10.5375 17.0043 10.0689 17.0043C9.86915 17.0043 9.66686 16.9804 9.47246 16.927C8.79566 16.7404 7.65031 16.3929 7.19551 16.2309C6.75811 16.0749 6.59902 15.9254 6.59902 15.6578C6.59902 15.2774 7.13596 15.0148 7.70176 14.7742C8.29936 14.5204 18.6398 10.1293 19.4486 9.83828C19.823 9.70268 20.1655 9.62031 20.4529 9.62031Z" fill="white"/>
</svg>
