<svg width="30" height="30" viewBox="0 0 30 30" fill="none" xmlns="http://www.w3.org/2000/svg">
<path fill-rule="evenodd" clip-rule="evenodd" d="M17.5268 19.831C16.1084 18.9445 11.0551 13.8913 10.1692 12.4734C10.5237 11.9415 11.3216 11.321 11.6762 10.9664C12.3854 10.0799 12.1195 8.83875 11.7647 7.95228C11.3214 6.71127 9.9918 2.36736 8.04151 3.34259C7.15504 3.87451 3.52041 6.62267 3.25446 7.59773C2.81111 9.45943 3.87497 11.321 4.93879 12.8279C8.21887 17.5264 12.4739 21.7816 17.1726 25.0617C18.6796 26.1255 20.5413 27.1894 22.4028 26.7461C23.3778 26.4801 26.126 22.8455 26.6579 21.959C27.7217 20.0087 23.2892 18.6789 22.0482 18.2358C21.1618 17.8812 19.9206 17.6153 19.0341 18.3244C18.6796 18.6789 18.059 19.4768 17.5271 19.8313L17.5268 19.831ZM17.6154 20.8948C18.0587 20.8948 19.5657 19.2105 19.743 19.0331C19.9204 18.8557 20.3635 18.5898 21.6933 19.1217C23.1117 19.6536 26.1258 20.806 25.7711 21.4265C25.4166 22.1358 22.757 25.6817 22.225 25.7703C21.6931 25.9477 20.5407 26.2136 17.7925 24.2633C13.094 21.072 8.92785 16.9057 5.73625 12.207C3.78596 9.45888 4.05192 8.30646 4.22928 7.77455C4.31786 7.24263 7.86391 4.58324 8.57301 4.22845C9.19352 3.87392 10.3459 6.88785 10.8779 8.30623C11.4098 9.63601 11.1438 10.0792 10.9664 10.2565C10.789 10.4339 9.10473 11.9409 9.10473 12.3842C9.10473 13.5366 16.4623 20.8943 17.6149 20.8943L17.6154 20.8948Z" fill="white" stroke="white" stroke-width="0.390625"/>
</svg>
