<svg width="30" height="30" viewBox="0 0 30 30" fill="none" xmlns="http://www.w3.org/2000/svg">
<path d="M9.59981 1.80078C5.2993 1.80078 1.7998 5.30027 1.7998 9.60078V20.4008C1.7998 24.7013 5.2993 28.2008 9.59981 28.2008H20.3998C24.7003 28.2008 28.1998 24.7013 28.1998 20.4008V9.60078C28.1998 5.30027 24.7003 1.80078 20.3998 1.80078H9.59981ZM9.59981 3.00078H20.3998C24.0517 3.00078 26.9998 5.94889 26.9998 9.60078V20.4008C26.9998 24.0527 24.0517 27.0008 20.3998 27.0008H9.59981C5.94791 27.0008 2.9998 24.0527 2.9998 20.4008V9.60078C2.9998 5.94889 5.94791 3.00078 9.59981 3.00078ZM22.1998 6.60078C21.8815 6.60078 21.5763 6.72721 21.3513 6.95225C21.1262 7.1773 20.9998 7.48252 20.9998 7.80078C20.9998 8.11904 21.1262 8.42427 21.3513 8.64931C21.5763 8.87435 21.8815 9.00078 22.1998 9.00078C22.5181 9.00078 22.8233 8.87435 23.0483 8.64931C23.2734 8.42427 23.3998 8.11904 23.3998 7.80078C23.3998 7.48252 23.2734 7.1773 23.0483 6.95225C22.8233 6.72721 22.5181 6.60078 22.1998 6.60078ZM14.9998 8.40078C11.3618 8.40078 8.3998 11.3628 8.3998 15.0008C8.3998 18.6388 11.3618 21.6008 14.9998 21.6008C18.6378 21.6008 21.5998 18.6388 21.5998 15.0008C21.5998 11.3628 18.6378 8.40078 14.9998 8.40078ZM14.9998 9.60078C17.9892 9.60078 20.3998 12.0113 20.3998 15.0008C20.3998 17.9902 17.9892 20.4008 14.9998 20.4008C12.0104 20.4008 9.59981 17.9902 9.59981 15.0008C9.59981 12.0113 12.0104 9.60078 14.9998 9.60078Z" fill="white"/>
</svg>
