<svg width="82" height="92" viewBox="0 0 82 92" fill="none" xmlns="http://www.w3.org/2000/svg">
<g filter="url(#filter0_d_2070_4994)">
<mask id="mask0_2070_4994" style="mask-type:luminance" maskUnits="userSpaceOnUse" x="27" y="18" width="49" height="63">
<path d="M27.2412 18.8464H75.7043V80.4388H27.2412V18.8464Z" fill="white" stroke="white" stroke-width="0.390625"/>
</mask>
<g mask="url(#mask0_2070_4994)">
<path d="M49.838 80.4389C49.374 80.4401 48.9187 80.3114 48.5233 80.0677C48.1286 79.8239 47.8094 79.4744 47.6022 79.0593L42.4735 68.8446L31.6686 79.7076C31.2034 80.1902 30.5637 80.4655 29.893 80.4711C29.223 80.476 28.579 80.2119 28.1058 79.7367C27.6331 79.2616 27.3714 78.6157 27.3801 77.9456V21.426C27.3795 20.8018 27.6127 20.1998 28.0346 19.7396C28.4565 19.2794 29.0356 18.9935 29.658 18.9397C30.2797 18.8859 30.8996 19.0672 31.3946 19.4482L74.6154 52.6945L74.6147 52.6939C75.1239 53.0855 75.4623 53.6578 75.5594 54.2925C75.6572 54.9267 75.5062 55.5744 75.1381 56.1003C74.77 56.6261 74.2139 56.9899 73.5841 57.1161L60.1778 59.7838L65.3727 70.1736C65.6616 70.7625 65.7074 71.4424 65.4989 72.0647C65.2905 72.687 64.8444 73.2024 64.2585 73.4981L50.9599 80.1474H50.9605C50.6153 80.333 50.2299 80.4332 49.8383 80.4382L49.838 80.4389ZM43.1887 62.1528C43.3211 62.1404 43.4548 62.1404 43.5878 62.1528C44.3809 62.2796 45.0651 62.7807 45.4246 63.4996L50.9516 74.6206L59.8034 70.1903L54.2596 59.0942C53.9002 58.3957 53.8903 57.5686 54.2336 56.8621C54.577 56.1556 55.2334 55.652 56.0055 55.5035L67.2596 53.2509L32.3678 26.4125V71.9266L41.4186 62.8751C41.8876 62.4105 42.5211 62.1507 43.1806 62.1519L43.1887 62.1528Z" fill="#CC1100" stroke="#CC1100" stroke-width="0.390625"/>
</g>
<path d="M11.0313 39.5388C10.2827 39.5425 9.57192 39.2091 9.09549 38.6312C8.61974 38.0534 8.42797 37.2918 8.57457 36.5574C8.72118 35.8231 9.18952 35.1939 9.85086 34.8426L15.5358 31.7919L15.5364 31.7925C16.3202 31.3867 17.26 31.4263 18.0074 31.8952C18.7553 32.3648 19.1989 33.1938 19.1742 34.0761C19.15 34.9583 18.6607 35.762 17.8886 36.1894L12.2032 39.2394C11.8432 39.4343 11.441 39.537 11.0315 39.5389L11.0313 39.5388Z" fill="#CC1100" stroke="#CC1100" stroke-width="0.390625"/>
<path d="M47.0539 20.2209C46.3053 20.2246 45.5945 19.8912 45.118 19.3133C44.6417 18.7355 44.4505 17.9746 44.5971 17.2402C44.7437 16.5058 45.2121 15.876 45.8734 15.5253L51.5583 12.4746H51.5589C52.344 12.0527 53.2949 12.0824 54.0527 12.5514C54.8106 13.0209 55.2603 13.8592 55.2331 14.7501C55.2053 15.641 54.7048 16.4495 53.9191 16.8715L48.2256 19.9222C47.8656 20.1164 47.4634 20.219 47.0539 20.2209Z" fill="#CC1100" stroke="#CC1100" stroke-width="0.390625"/>
<path d="M23.7567 13.1815C23.3051 13.1828 22.8615 13.0609 22.4736 12.8295C22.0857 12.5982 21.7677 12.2659 21.5543 11.8681L18.5036 6.18323C18.0823 5.39754 18.1114 4.44664 18.581 3.68881C19.0499 2.93095 19.8882 2.48119 20.7791 2.50903C21.6705 2.53626 22.4791 3.03736 22.9005 3.82245L25.9512 9.5159C26.3619 10.288 26.3384 11.2184 25.8893 11.9688C25.4408 12.7186 24.6309 13.1789 23.7568 13.1814L23.7567 13.1815Z" fill="#CC1100" stroke="#CC1100" stroke-width="0.390625"/>
<path d="M15.4123 23.3807C15.1673 23.3813 14.9235 23.3448 14.6897 23.2725L8.50557 21.4271C7.67471 21.1511 7.04987 20.4601 6.85814 19.6064C6.66698 18.752 6.93733 17.8606 7.57083 17.2561C8.20434 16.6523 9.10757 16.4246 9.95202 16.6566L16.1274 18.5181C16.9038 18.7446 17.5225 19.3341 17.7867 20.0988C18.0503 20.8635 17.9265 21.7092 17.4551 22.3661C16.9831 23.0231 16.2215 23.411 15.4124 23.4055L15.4123 23.3807Z" fill="#CC1100" stroke="#CC1100" stroke-width="0.390625"/>
<mask id="mask1_2070_4994" style="mask-type:luminance" maskUnits="userSpaceOnUse" x="34" y="0" width="8" height="13">
<path d="M34.3682 0.647461H41.3367V11.8773H34.3682V0.647461Z" fill="white" stroke="white" stroke-width="0.390625"/>
</mask>
<g mask="url(#mask1_2070_4994)">
<path d="M36.9732 11.8196C36.7282 11.8153 36.4851 11.7788 36.25 11.7114C35.6171 11.5196 35.0869 11.0841 34.7751 10.5013C34.4633 9.9185 34.3959 9.2355 34.5877 8.60266L36.4492 2.41856V2.41918C36.7078 1.56543 37.4019 0.913987 38.2705 0.711091C39.1391 0.508196 40.0497 0.783475 40.6598 1.4343C41.2698 2.08451 41.4869 3.01125 41.2283 3.86505L39.3581 10.0404C39.2046 10.5539 38.8897 11.0043 38.4598 11.3248C38.0304 11.6452 37.5089 11.8184 36.9732 11.8196Z" fill="#CC1100" stroke="#CC1100" stroke-width="0.390625"/>
</g>
</g>
<defs>
<filter id="filter0_d_2070_4994" x="-0.397461" y="-2.54785" width="83.1816" height="94.182" filterUnits="userSpaceOnUse" color-interpolation-filters="sRGB">
<feFlood flood-opacity="0" result="BackgroundImageFix"/>
<feColorMatrix in="SourceAlpha" type="matrix" values="0 0 0 0 0 0 0 0 0 0 0 0 0 0 0 0 0 0 127 0" result="hardAlpha"/>
<feOffset dy="4"/>
<feGaussianBlur stdDeviation="3.5"/>
<feComposite in2="hardAlpha" operator="out"/>
<feColorMatrix type="matrix" values="0 0 0 0 0.770833 0 0 0 0 0.636366 0 0 0 0 0.26658 0 0 0 0.5 0"/>
<feBlend mode="normal" in2="BackgroundImageFix" result="effect1_dropShadow_2070_4994"/>
<feBlend mode="normal" in="SourceGraphic" in2="effect1_dropShadow_2070_4994" result="shape"/>
</filter>
</defs>
</svg>
