<svg width="90" height="94" viewBox="0 0 90 94" fill="none" xmlns="http://www.w3.org/2000/svg">
<g clip-path="url(#clip0_2070_4951)">
<g filter="url(#filter0_d_2070_4951)">
<path d="M80.5633 73.1586L61.2636 27.8029C60.9295 27.0476 60.3795 26.4079 59.6829 25.9644C58.9863 25.5208 58.1746 25.2931 57.3487 25.3092C56.5235 25.2931 55.7111 25.5208 55.0146 25.9644C54.3181 26.4079 53.768 27.0476 53.4339 27.8029L50.5665 34.5605L47.6991 27.8283C47.2382 26.633 46.2552 25.7137 45.0315 25.3345V15.6099H65.8025L65.8018 1.99512H42.5633V25.3841C41.3396 25.7639 40.3565 26.682 39.8957 27.8779L37.0283 34.6101L34.1609 27.8779C33.8268 27.1225 33.2768 26.4828 32.5802 26.0393C31.8836 25.5957 31.0713 25.368 30.246 25.3841C29.4201 25.368 28.6084 25.5957 27.9119 26.0393C27.2153 26.4829 26.6653 27.1225 26.3312 27.8779L7.05687 73.1591C6.5075 74.4725 6.6498 75.9735 7.4361 77.16C8.22179 78.3466 9.54821 79.0624 10.9717 79.0686H76.6502C78.0787 79.0754 79.4143 78.3621 80.2032 77.1713C80.9921 75.9804 81.1281 74.4721 80.5651 73.1593L80.5633 73.1586ZM45.0554 4.48842H63.332V13.1156H45.0554V4.48842ZM42.188 28.7754C42.4323 28.1802 42.9922 27.7744 43.6338 27.728H43.9579C44.6001 27.7744 45.16 28.1802 45.4044 28.7754L64.7041 74.1564C64.962 74.7002 64.9218 75.338 64.597 75.8454C64.2728 76.352 63.7099 76.6558 63.1086 76.6496H24.4838C23.8825 76.6558 23.3195 76.352 22.9953 75.8454C22.6705 75.3381 22.6303 74.6996 22.8883 74.1558L42.188 28.7754ZM9.49759 75.8019C9.17032 75.3144 9.11402 74.6939 9.34788 74.1556L28.6476 28.7746C28.9303 28.1312 29.5663 27.7167 30.2684 27.7167C30.9706 27.7167 31.6065 28.1318 31.8892 28.7752L35.7045 37.7266L20.7435 73.1838C20.2609 74.2714 20.2609 75.5124 20.7435 76.6H10.9687C10.3736 76.6068 9.81683 76.3043 9.49759 75.8019ZM78.1187 75.8019C77.7995 76.3043 77.2427 76.6062 76.6475 76.5994H66.923C67.4055 75.5118 67.4055 74.2714 66.923 73.1839L51.962 37.7267L55.7772 28.7752C56.0748 28.1498 56.7058 27.7514 57.3981 27.7514C58.0903 27.7514 58.7208 28.1492 59.0189 28.7746L78.3186 74.1557C78.5382 74.7026 78.4627 75.323 78.1187 75.8019Z" fill="#CC1100"/>
<path d="M80.5633 73.1586L61.2636 27.8029C60.9295 27.0476 60.3795 26.4079 59.6829 25.9644C58.9863 25.5208 58.1746 25.2931 57.3487 25.3092C56.5235 25.2931 55.7111 25.5208 55.0146 25.9644C54.3181 26.4079 53.768 27.0476 53.4339 27.8029L50.5665 34.5605L47.6991 27.8283C47.2382 26.633 46.2552 25.7137 45.0315 25.3345V15.6099H65.8025L65.8018 1.99512H42.5633V25.3841C41.3396 25.7639 40.3565 26.682 39.8957 27.8779L37.0283 34.6101L34.1609 27.8779C33.8268 27.1225 33.2768 26.4828 32.5802 26.0393C31.8836 25.5957 31.0713 25.368 30.246 25.3841C29.4201 25.368 28.6084 25.5957 27.9119 26.0393C27.2153 26.4829 26.6653 27.1225 26.3312 27.8779L7.05687 73.1591C6.5075 74.4725 6.6498 75.9735 7.4361 77.16C8.22179 78.3466 9.54821 79.0624 10.9717 79.0686H76.6502C78.0787 79.0754 79.4143 78.3621 80.2032 77.1713C80.9921 75.9804 81.1281 74.4721 80.5651 73.1593L80.5633 73.1586ZM45.0554 4.48842H63.332V13.1156H45.0554V4.48842ZM42.188 28.7754C42.4323 28.1802 42.9922 27.7744 43.6338 27.728H43.9579C44.6001 27.7744 45.16 28.1802 45.4044 28.7754L64.7041 74.1564C64.962 74.7002 64.9218 75.338 64.597 75.8454C64.2728 76.352 63.7099 76.6558 63.1086 76.6496H24.4838C23.8825 76.6558 23.3195 76.352 22.9953 75.8454C22.6705 75.3381 22.6303 74.6996 22.8883 74.1558L42.188 28.7754ZM9.49759 75.8019C9.17032 75.3144 9.11402 74.6939 9.34788 74.1556L28.6476 28.7746C28.9303 28.1312 29.5663 27.7167 30.2684 27.7167C30.9706 27.7167 31.6065 28.1318 31.8892 28.7752L35.7045 37.7266L20.7435 73.1838C20.2609 74.2714 20.2609 75.5124 20.7435 76.6H10.9687C10.3736 76.6068 9.81683 76.3043 9.49759 75.8019ZM78.1187 75.8019C77.7995 76.3043 77.2427 76.6062 76.6475 76.5994H66.923C67.4055 75.5118 67.4055 74.2714 66.923 73.1839L51.962 37.7267L55.7772 28.7752C56.0748 28.1498 56.7058 27.7514 57.3981 27.7514C58.0903 27.7514 58.7208 28.1492 59.0189 28.7746L78.3186 74.1557C78.5382 74.7026 78.4627 75.323 78.1187 75.8019Z" stroke="#CC1100" stroke-width="0.390625"/>
</g>
</g>
<defs>
<filter id="filter0_d_2070_4951" x="-0.46875" y="-1.2002" width="88.5723" height="91.4642" filterUnits="userSpaceOnUse" color-interpolation-filters="sRGB">
<feFlood flood-opacity="0" result="BackgroundImageFix"/>
<feColorMatrix in="SourceAlpha" type="matrix" values="0 0 0 0 0 0 0 0 0 0 0 0 0 0 0 0 0 0 127 0" result="hardAlpha"/>
<feOffset dy="4"/>
<feGaussianBlur stdDeviation="3.5"/>
<feComposite in2="hardAlpha" operator="out"/>
<feColorMatrix type="matrix" values="0 0 0 0 0.770833 0 0 0 0 0.636366 0 0 0 0 0.26658 0 0 0 0.5 0"/>
<feBlend mode="normal" in2="BackgroundImageFix" result="effect1_dropShadow_2070_4951"/>
<feBlend mode="normal" in="SourceGraphic" in2="effect1_dropShadow_2070_4951" result="shape"/>
</filter>
<clipPath id="clip0_2070_4951">
<rect width="89.1973" height="93.2518" fill="white" transform="translate(0.223633)"/>
</clipPath>
</defs>
</svg>
