<svg width="101" height="80" viewBox="0 0 101 80" fill="none" xmlns="http://www.w3.org/2000/svg">
	<g filter="url(#filter0_d_2070_4969)">
		<g filter="url(#filter1_d_2070_4969)">
			<path d="M51.6194 39.089C57.1458 39.089 61.642 34.7115 61.642 29.3326C61.642 23.9537 57.1465 19.5762 51.6194 19.5762C46.093 19.5762 41.5957 23.9537 41.5957 29.3326C41.5957 34.7115 46.0931 39.089 51.6194 39.089ZM51.6194 22.703C55.3744 22.703 58.4282 25.6766 58.4282 29.3315C58.4282 32.9863 55.3744 35.9599 51.6194 35.9599C47.8644 35.9599 44.8094 32.9863 44.8094 29.3315C44.8094 25.6766 47.8644 22.703 51.6194 22.703Z" fill="#CC1100" stroke="#CC1100" stroke-width="0.390625" />
			<path d="M27.1929 39.012C31.2809 39.012 34.6056 35.7753 34.6056 31.797C34.6056 27.8181 31.2802 24.582 27.1929 24.582C23.105 24.582 19.7803 27.8187 19.7803 31.797C19.7796 35.7759 23.105 39.012 27.1929 39.012ZM27.1929 27.7095C29.5088 27.7095 31.3918 29.5423 31.3918 31.7964C31.3918 34.0505 29.5088 35.8833 27.1929 35.8833C24.8771 35.8833 22.9941 34.0505 22.9941 31.7964C22.9935 29.5423 24.8766 27.7095 27.1929 27.7095Z" fill="#CC1100" stroke="#CC1100" stroke-width="0.390625" />
			<path d="M74.8131 37.305C78.901 37.305 82.2257 34.0683 82.2257 30.09C82.2257 26.1111 78.9003 22.875 74.8131 22.875C70.7251 22.875 67.4004 26.1117 67.4004 30.09C67.3998 34.0689 70.7251 37.305 74.8131 37.305ZM74.8131 26.0025C77.1295 26.0025 79.0119 27.8353 79.0119 30.0894C79.0119 32.3434 77.1289 34.1763 74.8131 34.1763C72.4972 34.1763 70.6142 32.3434 70.6142 30.0894C70.6136 27.8353 72.4968 26.0025 74.8131 26.0025Z" fill="#CC1100" stroke="#CC1100" stroke-width="0.390625" />
			<path d="M80.4396 38.0531C79.7085 37.7338 78.8311 38.0024 78.4136 38.6793C76.9073 41.12 72.7097 41.1213 71.206 38.6811C70.7903 38.003 69.9224 37.7375 69.18 38.0531C66.572 39.1718 64.3942 41.1048 62.9225 43.4584C61.8558 42.7156 60.734 42.035 59.5049 41.5052C58.7581 41.1848 57.904 41.4546 57.4901 42.1083C57.4839 42.1174 57.4776 42.1278 57.4713 42.1376C56.2285 44.1646 54.0413 45.3743 51.6195 45.3743C49.1964 45.3743 47.0074 44.1646 45.7644 42.1376C45.3487 41.4595 44.4777 41.186 43.7352 41.5083C41.8923 42.3005 40.2318 43.3625 38.7663 44.6156C37.2908 42.4903 35.2465 40.7888 32.8147 39.7499C32.0754 39.4368 31.2062 39.7023 30.7917 40.3791C29.2667 42.8535 25.113 42.8516 23.5842 40.3773C23.1697 39.7004 22.2956 39.4349 21.5582 39.7511C16.5133 41.9184 13.2539 46.792 13.2539 52.1669C13.2539 53.0311 13.9725 53.7306 14.8605 53.7306H32.8721C32.3961 55.3773 32.124 57.0961 32.124 58.8594C32.124 59.7236 32.8426 60.4231 33.7305 60.4231H69.5032C70.3912 60.4231 71.1098 59.7236 71.1098 58.8594C71.1098 56.474 70.6044 54.1786 69.7497 52.032H87.1352C88.0231 52.032 88.7418 51.3326 88.7418 50.4683C88.7455 45.0941 85.4861 40.2205 80.4412 38.0531L80.4396 38.0531ZM16.5917 50.603C17.072 47.5043 18.9645 44.7657 21.7431 43.1709C24.5317 46.1127 29.8556 46.1127 32.6411 43.1678C34.2395 44.0797 35.5475 45.3969 36.4869 46.9642C35.5545 48.0891 34.7405 49.3012 34.0928 50.6031L16.5917 50.603ZM35.4204 57.2962C35.9509 52.0759 39.1175 47.4298 43.8657 44.9281C45.7552 47.1607 48.6096 48.5023 51.6208 48.5023C54.632 48.5023 57.4864 47.1595 59.3759 44.9249C64.1241 47.4316 67.2896 52.0776 67.8201 57.2968L35.4204 57.2962ZM68.1799 48.9051C67.3973 47.6722 66.4579 46.5454 65.4045 45.5121C66.3275 43.8556 67.6914 42.4354 69.3657 41.4716C72.1431 44.3799 77.4801 44.3799 80.2574 41.4716C83.0378 43.0665 84.9303 45.8045 85.4108 48.9051H68.1799Z" fill="#CC1100" stroke="#CC1100" stroke-width="0.390625" />
		</g>
	</g>
	<defs>
		<filter id="filter1_d_2070_4969" x="9.05859" y="19.3809" width="83.8789" height="49.2375" filterUnits="userSpaceOnUse" color-interpolation-filters="sRGB">
			<feFlood flood-opacity="0" result="BackgroundImageFix" />
			<feColorMatrix in="SourceAlpha" type="matrix" values="0 0 0 0 0 0 0 0 0 0 0 0 0 0 0 0 0 0 127 0" result="hardAlpha" />
			<feOffset dy="4" />
			<feGaussianBlur stdDeviation="2" />
			<feComposite in2="hardAlpha" operator="out" />
			<feColorMatrix type="matrix" values="0 0 0 0 0.770833 0 0 0 0 0.636366 0 0 0 0 0.26658 0 0 0 0.4 0" />
			<feBlend mode="normal" in2="BackgroundImageFix" result="effect1_dropShadow_2070_4969" />
			<feBlend mode="normal" in="SourceGraphic" in2="effect1_dropShadow_2070_4969" result="shape" />
		</filter>
	</defs>
</svg>
