<svg width="19" height="19" viewBox="0 0 19 19" fill="none" xmlns="http://www.w3.org/2000/svg">
	<path d="M16.2195 2.77083C14.4321 0.989583 12.0488 0 9.5331 0C4.30313 0 0.0662011 4.22222 0.0662011 9.43403C0.0662011 11.0833 0.529617 12.7326 1.32404 14.1181L0 19L5.03136 17.6806C6.4216 18.4062 7.94425 18.8021 9.5331 18.8021C14.7631 18.8021 19 14.5799 19 9.36806C18.9338 6.92708 18.007 4.55208 16.2195 2.77083ZM14.101 12.7986C13.9024 13.3264 12.9756 13.8542 12.5122 13.9201C12.115 13.9861 11.5854 13.9861 11.0557 13.8542C10.7247 13.7222 10.2613 13.5903 9.73171 13.3264C7.34843 12.3368 5.82579 9.96181 5.69338 9.76389C5.56098 9.63194 4.70035 8.51042 4.70035 7.32292C4.70035 6.13542 5.29617 5.60764 5.49477 5.34375C5.69338 5.07986 5.95819 5.07986 6.15679 5.07986C6.2892 5.07986 6.4878 5.07986 6.62021 5.07986C6.75261 5.07986 6.95122 5.01389 7.14982 5.47569C7.34843 5.9375 7.81184 7.125 7.87805 7.19097C7.94425 7.32292 7.94425 7.45486 7.87805 7.58681C7.81184 7.71875 7.74564 7.85069 7.61324 7.98264C7.48083 8.11458 7.34843 8.3125 7.28223 8.37847C7.14982 8.51042 7.01742 8.64236 7.14982 8.84028C7.28223 9.10417 7.74564 9.82986 8.47387 10.4896C9.4007 11.2812 10.1289 11.5451 10.3937 11.6771C10.6585 11.809 10.7909 11.7431 10.9233 11.6111C11.0557 11.4792 11.5192 10.9514 11.6516 10.6875C11.784 10.4236 11.9826 10.4896 12.1812 10.5556C12.3798 10.6215 13.5714 11.2153 13.77 11.3472C14.0348 11.4792 14.1672 11.5451 14.2334 11.6111C14.2996 11.809 14.2996 12.2708 14.101 12.7986Z" fill="#0B2F38" />
</svg>
