<svg width="30" height="30" viewBox="0 0 30 30" fill="none" xmlns="http://www.w3.org/2000/svg">
<path d="M15.0002 1.19922C7.38592 1.19922 1.2002 7.38494 1.2002 14.9992C1.2002 17.4467 1.87141 19.7307 2.99082 21.7246L1.22246 28.0375C1.19421 28.1385 1.19293 28.2452 1.21876 28.3468C1.24458 28.4485 1.29661 28.5416 1.36965 28.6169C1.44268 28.6922 1.53418 28.747 1.63502 28.7759C1.73585 28.8048 1.8425 28.8068 1.94434 28.7816L8.52676 27.1504C10.461 28.183 12.6558 28.7992 15.0002 28.7992C22.6145 28.7992 28.8002 22.6135 28.8002 14.9992C28.8002 7.38494 22.6145 1.19922 15.0002 1.19922ZM15.0002 2.39922C21.9659 2.39922 27.6002 8.0335 27.6002 14.9992C27.6002 21.9649 21.9659 27.5992 15.0002 27.5992C12.767 27.5992 10.6755 27.017 8.85723 25.9996C8.72424 25.9253 8.56798 25.9044 8.42012 25.941L2.65566 27.3695L4.20137 21.8547C4.22349 21.7768 4.22959 21.6951 4.21932 21.6148C4.20905 21.5344 4.18261 21.457 4.1416 21.3871C3.03661 19.5134 2.4002 17.3333 2.4002 14.9992C2.4002 8.0335 8.03447 2.39922 15.0002 2.39922ZM9.98574 7.79922C9.60112 7.79922 9.05182 7.94231 8.60059 8.42852C8.32956 8.72055 7.2002 9.82093 7.2002 11.7555C7.2002 13.7724 8.59903 15.5127 8.76816 15.7363H8.76934V15.7375C8.75329 15.7164 8.98401 16.0505 9.29199 16.4512C9.59997 16.8518 10.0306 17.378 10.5717 17.9477C11.6538 19.087 13.1752 20.4037 15.0635 21.209C15.9331 21.5793 16.6191 21.8029 17.1389 21.966C18.1021 22.2685 18.9794 22.2225 19.6385 22.1254C20.1318 22.0527 20.6743 21.8159 21.2111 21.4762C21.7479 21.1365 22.2741 20.7141 22.5061 20.0723C22.6723 19.6122 22.7568 19.187 22.7873 18.8371C22.8026 18.6622 22.8045 18.5078 22.7932 18.3648C22.7818 18.2219 22.7939 18.1124 22.6607 17.8938C22.3814 17.4351 22.065 17.4231 21.735 17.2598C21.5516 17.169 21.0294 16.914 20.5057 16.6645C19.9825 16.4152 19.5295 16.1944 19.2506 16.0949C19.0743 16.0315 18.8591 15.9402 18.5486 15.9754C18.2381 16.0106 17.9315 16.2346 17.7529 16.4992C17.5837 16.7501 16.9024 17.5542 16.6947 17.7906C16.692 17.7889 16.71 17.7972 16.6279 17.7566C16.3711 17.6295 16.0569 17.5214 15.592 17.2762C15.1271 17.0309 14.5455 16.6688 13.9092 16.1078V16.1066C12.962 15.2728 12.2986 14.2259 12.0893 13.8742C12.1034 13.8574 12.0876 13.8778 12.1174 13.8484L12.1186 13.8473C12.3325 13.6366 12.522 13.3849 12.6822 13.2004C12.9093 12.9387 13.0096 12.7081 13.1182 12.4926C13.3346 12.0631 13.2141 11.5905 13.0889 11.3418V11.3406C13.0975 11.3578 13.0211 11.1893 12.9389 10.9949C12.8564 10.8 12.7512 10.5472 12.6389 10.2777C12.4142 9.73872 12.1634 9.13417 12.0143 8.78008V8.77891C11.8386 8.36183 11.6008 8.06136 11.29 7.91641C10.9792 7.77145 10.7047 7.81266 10.6936 7.81211H10.6924C10.4706 7.80188 10.2272 7.79922 9.98574 7.79922ZM9.98574 8.99922C10.2171 8.99922 10.4451 9.00204 10.6361 9.01094C10.8326 9.02073 10.8204 9.02153 10.7826 9.00391C10.7442 8.986 10.7963 8.98019 10.908 9.24531C11.0541 9.59203 11.3061 10.1988 11.5314 10.7395C11.6441 11.0098 11.7496 11.2635 11.8338 11.4625C11.918 11.6615 11.9636 11.7726 12.0166 11.8785V11.8797L12.0178 11.8809C12.0697 11.9833 12.0651 11.9177 12.0471 11.9535C11.9205 12.2048 11.9033 12.2665 11.7752 12.4141C11.5802 12.6387 11.3813 12.8893 11.276 12.993C11.1839 13.0835 11.0176 13.2244 10.9139 13.5004C10.8099 13.7768 10.8584 14.156 11.0252 14.4391C11.2472 14.816 11.9788 16.0068 13.1158 17.0078C13.8319 17.639 14.4989 18.0568 15.0318 18.3379C15.5647 18.619 15.9988 18.7832 16.0959 18.8313C16.3265 18.9454 16.5786 19.034 16.8717 18.9988C17.1648 18.9636 17.4175 18.7858 17.5783 18.6039L17.5795 18.6027C17.7936 18.36 18.4297 17.6337 18.735 17.1859C18.7479 17.1905 18.7437 17.187 18.8451 17.2234V17.2246H18.8463C18.8926 17.2411 19.4728 17.5008 19.99 17.7473C20.5073 17.9938 21.0323 18.2499 21.2029 18.3344C21.4491 18.4562 21.5655 18.5355 21.5955 18.5359C21.5975 18.5887 21.5996 18.6459 21.592 18.7328C21.571 18.9738 21.5065 19.3074 21.3775 19.6645C21.3143 19.8393 20.9852 20.1998 20.5701 20.4625C20.155 20.7252 19.6498 20.9107 19.4627 20.9383C18.9001 21.0212 18.2322 21.0514 17.4986 20.8211C16.99 20.6614 16.3558 20.4548 15.5346 20.1051C13.8691 19.3948 12.4536 18.1861 11.4424 17.1215C10.9368 16.5892 10.5317 16.0936 10.2436 15.7188C9.95592 15.3446 9.83031 15.1499 9.72559 15.0121L9.72441 15.0109C9.53852 14.7651 8.4002 13.1817 8.4002 11.7555C8.4002 10.246 9.10129 9.65408 9.48066 9.24531C9.67983 9.03072 9.89757 8.99922 9.98574 8.99922Z" fill="white"/>
</svg>
